<?xml version="1.0" encoding="UTF-8" standalone="no"?>
<svg width="279.4mm" height="215.9mm"
     viewBox="0 0 3300 2550"
     xmlns="http://www.w3.org/2000/svg"
     xmlns:xlink="http://www.w3.org/1999/xlink"
     version="1.2"
     baseProfile="tiny">
  <defs>
  </defs>
  <g fill="none"
     stroke="black"
     stroke-width="1"
     fill-rule="evenodd"
     stroke-linecap="square"
     stroke-linejoin="bevel">

    <g fill="#ffffff"
       fill-opacity="1"
       stroke="none"
       transform="matrix(1,0,0,1,0,0)"
       font-family="Arial"
       font-size="12"
       font-weight="400"
       font-style="normal">
      <rect x="0"
            y="0"
            width="3300"
            height="2550"/>
    </g>

    <g fill="none"
       stroke="#000000"
       stroke-opacity="1"
       stroke-width="1"
       stroke-linecap="square"
       stroke-linejoin="bevel"
       transform="matrix(1,0,0,1,0,0)"
       font-family="Arial"
       font-size="12"
       font-weight="400"
       font-style="normal">
    </g>

    <g fill="#000000"
       fill-opacity="1"
       stroke="#000000"
       stroke-opacity="1"
       stroke-width="1"
       stroke-linecap="butt"
       stroke-linejoin="miter"
       stroke-miterlimit="2"
       transform="matrix(1,0,0,1,0,0)"
       font-family="Arial"
       font-size="12"
       font-weight="400"
       font-style="normal">
    </g>

    <g fill="#000000"
       fill-opacity="1"
       stroke="#000000"
       stroke-opacity="1"
       stroke-width="5"
       stroke-linecap="round"
       stroke-linejoin="bevel"
       transform="matrix(1,0,0,1,0,0)"
       font-family="Arial"
       font-size="12"
       font-weight="400"
       font-style="normal">
      <polyline fill="none"
                vector-effect="none"
                points="783.01,901.707 1101.21,1085.42"/>
      <polyline fill="none"
                vector-effect="none"
                points="1254.64,629.409 1599.08,430.55"/>
      <polyline fill="none"
                vector-effect="none"
                points="1121.78,1208.26 1124.88,1206.47"/>
      <polyline fill="none"
                vector-effect="none"
                points="856.615,1226.63 1101.21,1085.42"/>
      <polyline fill="none"
                vector-effect="none"
                points="856.615,1471.58 1121.78,1318.49"/>
      <polyline fill="none"
                vector-effect="none"
                points="1651.58,1012.61 1917.28,859.211"/>
      <polyline fill="none"
                vector-effect="none"
                points="1917.28,614.262 1599.08,430.55"/>
      <polyline fill="none"
                vector-effect="none"
                points="1917.28,859.211 1917.28,614.262"/>
      <polyline fill="none"
                vector-effect="none"
                points="856.615,1226.63 538.417,1042.92"/>
      <polyline fill="none"
                vector-effect="none"
                points="1121.78,1208.26 1101.21,1085.42"/>
      <polyline fill="none"
                vector-effect="none"
                points="538.417,1287.87 538.417,1042.92"/>
      <polyline fill="none"
                vector-effect="none"
                points="538.417,1042.92 783.01,901.707"/>
      <polyline fill="none"
                vector-effect="none"
                points="856.615,1471.58 856.615,1226.63"/>
      <polyline fill="none"
                vector-effect="none"
                points="1460.55,877.952 1917.28,614.262"/>
      <polyline fill="none"
                vector-effect="none"
                points="856.615,1471.58 538.417,1287.87"/>
      <polyline fill="none"
                vector-effect="none"
                points="1457.39,900.493 1460.55,877.952"/>
      <polyline fill="none"
                vector-effect="none"
                points="856.615,553.637 1917.28,1166.01"/>
      <polyline fill="none"
                vector-effect="none"
                points="856.615,553.637 538.417,737.349"/>
      <polyline fill="none"
                vector-effect="none"
                points="538.417,982.298 590.92,1012.61"/>
      <polyline fill="none"
                vector-effect="none"
                points="1121.78,1184.38 1117.35,1181.82"/>
      <polyline fill="none"
                vector-effect="none"
                points="1142.35,1330.98 1599.08,1594.67"/>
      <polyline fill="none"
                vector-effect="none"
                points="538.417,737.349 778.719,876.087"/>
      <polyline fill="none"
                vector-effect="none"
                points="1121.78,1074.15 1599.08,1349.72"/>
      <polyline fill="none"
                vector-effect="none"
                points="1142.35,1330.98 1121.78,1184.38"/>
      <polyline fill="none"
                vector-effect="none"
                points="538.417,737.349 538.417,982.298"/>
      <polyline fill="none"
                vector-effect="none"
                points="1917.28,1166.01 1599.08,1349.72"/>
      <polyline fill="none"
                vector-effect="none"
                points="1599.08,1349.72 1599.08,1594.67"/>
      <polyline fill="none"
                vector-effect="none"
                points="1917.28,1410.96 1599.08,1594.67"/>
      <polyline fill="none"
                vector-effect="none"
                points="1917.28,1166.01 1917.28,1410.96"/>
      <polyline fill="none"
                vector-effect="none"
                points="1066.73,882.481 1066.73,890.442"/>
      <polyline fill="none"
                vector-effect="none"
                points="1176.83,890.442 1176.83,882.481"/>
      <polyline fill="none"
                vector-effect="none"
                points="1176.83,890.442 1176.81,891.222 1176.76,892.002 1176.68,892.78 1176.57,893.557 1176.42,894.333 1176.23,895.106 1176.02,895.876 1175.77,896.643 1175.49,897.406 1175.18,898.165 1174.84,898.919 1174.46,899.668 1174.05,900.412 1173.61,901.15 1173.14,901.881 1172.64,902.605 1172.11,903.322 1171.55,904.031 1170.95,904.732 1170.33,905.425 1169.68,906.108 1169,906.782 1168.29,907.446 1167.55,908.1 1166.79,908.743 1166,909.375 1165.18,909.996 1164.33,910.605 1163.46,911.202 1162.57,911.786 1161.65,912.358 1160.71,912.916 1159.74,913.461 1158.75,913.992 1157.74,914.509 1156.7,915.011 1155.65,915.498 1154.57,915.971 1153.48,916.428 1152.36,916.869 1151.23,917.294 1150.08,917.703 1148.91,918.096 1147.73,918.472 1146.53,918.832 1145.32,919.174 1144.09,919.499 1142.85,919.806 1141.59,920.096 1140.33,920.367 1139.05,920.621 1137.76,920.857 1136.46,921.074 1135.16,921.273 1133.84,921.453 1132.52,921.615 1131.19,921.757 1129.86,921.881 1128.52,921.986 1127.18,922.072 1125.83,922.139 1124.48,922.187 1123.13,922.216 1121.78,922.225 1120.43,922.216 1119.08,922.187 1117.73,922.139 1116.38,922.072 1115.04,921.986 1113.7,921.881 1112.37,921.757 1111.04,921.615 1109.72,921.453 1108.4,921.273 1107.1,921.074 1105.8,920.857 1104.51,920.621 1103.23,920.367 1101.97,920.096 1100.71,919.806 1099.47,919.499 1098.24,919.174 1097.03,918.832 1095.83,918.472 1094.65,918.096 1093.48,917.703 1092.33,917.294 1091.2,916.869 1090.08,916.428 1088.99,915.971 1087.91,915.498 1086.86,915.011 1085.82,914.509 1084.81,913.992 1083.82,913.461 1082.85,912.916 1081.91,912.358 1080.99,911.786 1080.1,911.202 1079.23,910.605 1078.38,909.996 1077.56,909.375 1076.77,908.743 1076.01,908.1 1075.27,907.446 1074.56,906.782 1073.88,906.108 1073.23,905.425 1072.61,904.732 1072.02,904.031 1071.45,903.322 1070.92,902.605 1070.42,901.881 1069.95,901.15 1069.51,900.412 1069.1,899.668 1068.72,898.919 1068.38,898.165 1068.07,897.406 1067.79,896.643 1067.54,895.876 1067.33,895.106 1067.14,894.333 1067,893.557 1066.88,892.78 1066.8,892.002 1066.75,891.222 1066.73,890.442 "/>
      <polyline fill="none"
                vector-effect="none"
                points="1158.42,858.76 1159.42,859.286 1160.39,859.826 1161.34,860.38 1162.27,860.946 1163.17,861.526 1164.05,862.118 1164.9,862.723 1165.73,863.339 1166.53,863.967 1167.3,864.606 1168.05,865.256 1168.76,865.917 1169.45,866.587 1170.11,867.267 1170.74,867.955 1171.35,868.653 1171.92,869.359 1172.46,870.073 1172.97,870.794 1173.45,871.523 1173.9,872.257 1174.32,872.999 1174.71,873.745 1175.07,874.497 1175.39,875.254 1175.68,876.015 1175.94,876.781 1176.16,877.549 1176.36,878.321 1176.52,879.094 1176.64,879.871 1176.74,880.648 1176.8,881.427 1176.83,882.206 1176.82,882.986 1176.79,883.765 1176.71,884.543 1176.61,885.32 1176.47,886.096 1176.3,886.869 1176.1,887.64 1175.87,888.407 1175.6,889.171 1175.3,889.931 1174.96,890.687 1174.6,891.437 1174.2,892.182 1173.78,892.922 1173.32,893.655 1172.83,894.381 1172.31,895.1 1171.75,895.812 1171.17,896.515 1170.56,897.211 1169.92,897.897 1169.25,898.574 1168.55,899.241 1167.83,899.898 1167.08,900.545 1166.29,901.181 1165.49,901.806 1164.65,902.419 1163.79,903.02 1162.91,903.608 1162,904.184 1161.06,904.747 1160.11,905.297 1159.13,905.832 1158.12,906.354 1157.1,906.862 1156.05,907.354 1154.98,907.832 1153.9,908.295 1152.79,908.742 1151.67,909.173 1150.52,909.588 1149.36,909.987 1148.19,910.369 1147,910.734 1145.79,911.083 1144.57,911.414 1143.33,911.728 1142.08,912.024 1140.82,912.303 1139.55,912.564 1138.26,912.806 1136.97,913.03 1135.67,913.236 1134.36,913.424 1133.04,913.592 1131.72,913.743 1130.38,913.874 1129.05,913.986 1127.71,914.08 1126.36,914.154 1125.02,914.209 1123.67,914.246 1122.32,914.263 1120.97,914.261 1119.62,914.24 1118.27,914.2 1116.92,914.141 1115.58,914.062 1114.24,913.965 1112.91,913.849 1111.58,913.714 1110.25,913.56 1108.94,913.387 1107.63,913.196 1106.33,912.987 1105.04,912.759 1103.76,912.512 1102.49,912.248 1101.23,911.966 1099.98,911.666 1098.75,911.349 1097.53,911.014 1096.32,910.662 1095.13,910.293 1093.96,909.907 1092.8,909.505 1091.67,909.087 1090.54,908.652 1089.44,908.202 1088.36,907.737 1087.3,907.256 1086.25,906.76 1085.23,906.25 1084.24,905.725 1083.26,905.187 1082.31,904.634 1081.38,904.069 1080.47,903.49 1079.59,902.899 1078.74,902.296 1077.91,901.68 1077.11,901.053 1076.33,900.415 1075.58,899.766 1074.86,899.107 1074.17,898.438 1073.51,897.759 1072.87,897.071 1072.27,896.374 1071.69,895.669 1071.15,894.956 1070.63,894.235 1070.15,893.507 1069.7,892.773 1069.27,892.032 1068.89,891.286 1068.53,890.534 1068.2,889.778 1067.91,889.017 1067.65,888.253 1067.42,887.484 1067.22,886.713 1067.06,885.939 1066.93,885.163 1066.83,884.386 1066.77,883.607 1066.73,882.828 1066.74,882.049 1066.77,881.269 1066.84,880.491 1066.94,879.714 1067.07,878.938 1067.24,878.164 1067.44,877.393 1067.67,876.626 1067.94,875.861 1068.24,875.101 1068.56,874.345 1068.93,873.594 1069.32,872.848 1069.74,872.108 1070.2,871.375 1070.69,870.648 1071.21,869.928 1071.75,869.216 1072.33,868.511 1072.94,867.816 1073.58,867.128 1074.25,866.451 1074.94,865.782 1075.66,865.124 1076.42,864.476 1077.19,863.84 1078,863.214 1078.83,862.6 1079.69,861.998 1080.57,861.408 1081.48,860.831 1082.41,860.267 1083.37,859.716 1084.34,859.179 1085.35,858.656 1086.37,858.147 "/>
      <polyline fill="none"
                vector-effect="none"
                points="1140.53,854.802 1140.53,778.631"/>
      <polyline fill="none"
                vector-effect="none"
                points="1103.03,778.631 1103.03,854.802"/>
      <polyline fill="none"
                vector-effect="none"
                points="1135.04,770.976 1132.17,769.319"/>
      <polyline fill="none"
                vector-effect="none"
                points="1111.39,769.319 1108.52,770.976"/>
      <polyline fill="none"
                vector-effect="none"
                points="1135.04,770.976 1135.42,771.205 1135.8,771.44 1136.16,771.681 1136.51,771.929 1136.84,772.182 1137.16,772.441 1137.47,772.705 1137.77,772.974 1138.05,773.249 1138.32,773.528 1138.57,773.811 1138.81,774.099 1139.03,774.39 1139.24,774.685 1139.43,774.984 1139.61,775.285 1139.78,775.59 1139.92,775.897 1140.05,776.207 1140.17,776.519 1140.27,776.832 1140.35,777.147 1140.42,777.464 1140.47,777.781 1140.51,778.099 1140.53,778.418 1140.53,778.737 1140.52,779.056 1140.49,779.374 1140.44,779.692 1140.38,780.009 1140.3,780.324 1140.21,780.638 1140.09,780.951 1139.97,781.261 1139.83,781.569 1139.67,781.875 1139.5,782.177 1139.31,782.477 1139.1,782.773 1138.88,783.066 1138.65,783.355 1138.4,783.64 1138.14,783.92 1137.86,784.196 1137.57,784.467 1137.27,784.733 1136.95,784.994 1136.62,785.249 1136.27,785.498 1135.92,785.742 1135.55,785.979 1135.17,786.21 1134.78,786.434 1134.37,786.652 1133.96,786.862 1133.53,787.066 1133.1,787.262 1132.65,787.451 1132.2,787.632 1131.73,787.805 1131.26,787.97 1130.78,788.127 1130.29,788.276 1129.8,788.417 1129.29,788.549 1128.79,788.672 1128.27,788.787 1127.75,788.893 1127.22,788.99 1126.69,789.078 1126.16,789.157 1125.62,789.227 1125.08,789.287 1124.53,789.339 1123.98,789.381 1123.44,789.414 1122.88,789.437 1122.33,789.451 1121.78,789.456 1121.23,789.451 1120.68,789.437 1120.13,789.414 1119.58,789.381 1119.03,789.339 1118.48,789.287 1117.94,789.227 1117.4,789.157 1116.87,789.078 1116.34,788.99 1115.81,788.893 1115.29,788.787 1114.78,788.672 1114.27,788.549 1113.76,788.417 1113.27,788.276 1112.78,788.127 1112.3,787.97 1111.83,787.805 1111.36,787.632 1110.91,787.451 1110.46,787.262 1110.03,787.066 1109.6,786.862 1109.19,786.652 1108.79,786.434 1108.39,786.21 1108.01,785.979 1107.64,785.742 1107.29,785.498 1106.94,785.249 1106.61,784.994 1106.29,784.733 1105.99,784.467 1105.7,784.196 1105.42,783.92 1105.16,783.64 1104.91,783.355 1104.68,783.066 1104.46,782.773 1104.25,782.477 1104.07,782.177 1103.89,781.875 1103.73,781.569 1103.59,781.261 1103.47,780.951 1103.36,780.638 1103.26,780.324 1103.18,780.009 1103.12,779.692 1103.07,779.374 1103.04,779.056 1103.03,778.737 1103.03,778.418 1103.05,778.099 1103.09,777.781 1103.14,777.464 1103.21,777.147 1103.29,776.832 1103.39,776.519 1103.51,776.207 1103.64,775.897 1103.79,775.59 1103.95,775.285 1104.13,774.984 1104.32,774.685 1104.53,774.39 1104.75,774.099 1104.99,773.811 1105.24,773.528 1105.51,773.249 1105.79,772.974 1106.09,772.705 1106.4,772.441 1106.72,772.182 1107.06,771.929 1107.4,771.681 1107.76,771.44 1108.14,771.205 1108.52,770.976"/>
      <polyline fill="none"
                vector-effect="none"
                points="1107.09,775.316 1107.1,775.571 1107.12,775.826 1107.15,776.08 1107.2,776.334 1107.26,776.586 1107.33,776.838 1107.41,777.088 1107.51,777.336 1107.62,777.583 1107.75,777.828 1107.89,778.07 1108.04,778.31 1108.2,778.547 1108.37,778.781 1108.56,779.013 1108.76,779.24 1108.97,779.465 1109.19,779.685 1109.42,779.902 1109.67,780.114 1109.92,780.322 1110.19,780.526 1110.46,780.724 1110.75,780.918 1111.05,781.107 1111.35,781.291 1111.67,781.469 1111.99,781.642 1112.33,781.809 1112.67,781.97 1113.02,782.125 1113.38,782.274 1113.75,782.417 1114.12,782.553 1114.5,782.683 1114.89,782.806 1115.28,782.922 1115.68,783.031 1116.08,783.134 1116.49,783.229 1116.91,783.317 1117.32,783.398 1117.75,783.472 1118.17,783.538 1118.6,783.597 1119.04,783.648 1119.47,783.692 1119.91,783.729 1120.35,783.757 1120.79,783.778 1121.23,783.792 1121.67,783.797 1122.11,783.796 1122.55,783.786 1122.99,783.769 1123.43,783.744 1123.87,783.711 1124.31,783.671 1124.74,783.624 1125.17,783.568 1125.6,783.506 1126.03,783.436 1126.45,783.359 1126.86,783.274 1127.27,783.182 1127.68,783.083 1128.08,782.977 1128.48,782.865 1128.87,782.745 1129.25,782.618 1129.63,782.486 1130,782.346 1130.36,782.2 1130.72,782.048 1131.06,781.89 1131.4,781.726 1131.73,781.556 1132.05,781.381 1132.36,781.2 1132.66,781.013 1132.95,780.822 1133.24,780.626 1133.51,780.424 1133.77,780.219 1134.02,780.008 1134.26,779.794 1134.48,779.575 1134.7,779.353 1134.9,779.127 1135.1,778.897 1135.28,778.665 1135.45,778.429 1135.6,778.19 1135.75,777.949 1135.88,777.706 1135.99,777.46 1136.1,777.212 1136.19,776.963 1136.27,776.712 1136.34,776.46 1136.39,776.207 1136.43,775.953 1136.46,775.698 1136.47,775.444 1136.47,775.189 1136.46,774.934 1136.43,774.679 1136.39,774.425 1136.34,774.172 1136.27,773.92 1136.19,773.669 1136.1,773.42 1135.99,773.172 1135.88,772.927 1135.75,772.683 1135.6,772.442 1135.45,772.203 1135.28,771.968 1135.1,771.735 1134.9,771.505 1134.7,771.279 1134.48,771.057 1134.26,770.838 1134.02,770.624 1133.77,770.414 1133.51,770.208 1133.24,770.007 1132.95,769.81 1132.66,769.619 1132.36,769.432 1132.05,769.251 1131.73,769.076 1131.4,768.906 1131.06,768.742 1130.72,768.584 1130.36,768.432 1130,768.286 1129.63,768.147 1129.25,768.014 1128.87,767.887 1128.48,767.768 1128.08,767.655 1127.68,767.549 1127.27,767.45 1126.86,767.358 1126.45,767.274 1126.03,767.196 1125.6,767.126 1125.17,767.064 1124.74,767.009 1124.31,766.961 1123.87,766.921 1123.43,766.888 1122.99,766.863 1122.55,766.846 1122.11,766.837 1121.67,766.835 1121.23,766.841 1120.79,766.854 1120.35,766.875 1119.91,766.904 1119.47,766.94 1119.04,766.984 1118.6,767.035 1118.17,767.094 1117.75,767.16 1117.32,767.234 1116.91,767.315 1116.49,767.403 1116.08,767.499 1115.68,767.601 1115.28,767.71 1114.89,767.827 1114.5,767.95 1114.12,768.079 1113.75,768.216 1113.38,768.358 1113.02,768.507 1112.67,768.662 1112.33,768.823 1111.99,768.99 1111.67,769.163 1111.35,769.341 1111.05,769.525 1110.75,769.714 1110.46,769.908 1110.19,770.107 1109.92,770.31 1109.67,770.518 1109.42,770.731 1109.19,770.947 1108.97,771.168 1108.76,771.392 1108.56,771.62 1108.37,771.851 1108.2,772.085 1108.04,772.322 1107.89,772.562 1107.75,772.805 1107.62,773.049 1107.51,773.296 1107.41,773.544 1107.33,773.794 1107.26,774.046 1107.2,774.299 1107.15,774.552 1107.12,774.806 1107.1,775.061 1107.09,775.316"/>
      <polyline fill="none"
                vector-effect="none"
                points="1140.5,839.077 1145.01,841.391"/>
      <polyline fill="none"
                vector-effect="none"
                points="1094.96,841.712 1103.02,838.858"/>
      <polyline fill="none"
                vector-effect="none"
                points="1085.14,862.866 1086.69,858.304"/>
      <polyline fill="none"
                vector-effect="none"
                points="1111.96,901.239 1107.95,900.1"/>
      <polyline fill="none"
                vector-effect="none"
                points="1107.95,900.1 1103.04,898.197"/>
      <polyline fill="none"
                vector-effect="none"
                points="1085.14,862.866 1085.14,885.754"/>
      <polyline fill="none"
                vector-effect="none"
                points="1148.6,872.683 1148.6,895.571"/>
      <polyline fill="none"
                vector-effect="none"
                points="1111.96,878.351 1111.96,901.239"/>
      <polyline fill="none"
                vector-effect="none"
                points="1158.42,851.53 1158.42,874.417"/>
      <polyline fill="none"
                vector-effect="none"
                points="1148.6,895.571 1140.54,898.425"/>
      <polyline fill="none"
                vector-effect="none"
                points="1130.28,900.801 1129.15,900.966"/>
      <polyline fill="none"
                vector-effect="none"
                points="1117.24,901.562 1111.96,901.239"/>
      <polyline fill="none"
                vector-effect="none"
                points="1145.01,841.391 1146.45,842.263 1147.87,843.168 1149.27,844.105 1150.65,845.074 1152.01,846.074 1153.34,847.106 1154.65,848.168 1155.93,849.259 1157.19,850.38 1158.42,851.53"/>
      <polyline fill="none"
                vector-effect="none"
                points="1086.69,858.304 1087.46,856.175 1088.28,854.062 1089.14,851.968 1090.05,849.893"/>
      <polyline fill="none"
                vector-effect="none"
                points="1153.51,887.39 1153.47,887.49 1153.42,887.597 1153.39,887.653 1153.36,887.714 1153.33,887.778 1153.3,887.848 1153.26,887.923 1153.22,888.004 1153.18,888.093 1153.13,888.189 1153.08,888.293 1153.03,888.404 1152.97,888.522 1152.9,888.646 1152.84,888.777 1152.77,888.913 1152.7,889.054 1152.62,889.2 1152.54,889.351 1152.46,889.506 1152.38,889.664 1152.29,889.825 1152.12,890.156 1151.93,890.494 1151.75,890.837 1151.55,891.181 1151.36,891.522 1151.16,891.858 1150.97,892.186 1150.87,892.345 1150.78,892.501 1150.59,892.803 1150.4,893.093 1150.21,893.372 1150.03,893.641 1149.85,893.902 1149.67,894.154 1149.49,894.401 1149.31,894.641 1149.13,894.878 1148.96,895.111 1148.6,895.571"/>
      <polyline fill="none"
                vector-effect="none"
                points="1103.04,898.197 1102.9,898.137 1102.76,898.073 1102.68,898.039 1102.61,898.003 1102.52,897.963 1102.43,897.921 1102.33,897.875 1102.23,897.824 1102.12,897.769 1102,897.71 1101.88,897.646 1101.74,897.578 1101.6,897.506 1101.46,897.43 1101.3,897.351 1101.14,897.268 1100.98,897.183 1100.81,897.094 1100.64,897.003 1100.46,896.91 1100.28,896.814 1100.1,896.717 1099.72,896.517 1099.34,896.312 1098.95,896.103 1098.55,895.892"/>
      <polyline fill="none"
                vector-effect="none"
                points="1090.05,849.893 1090.1,849.793 1090.14,849.687 1090.17,849.63 1090.2,849.57 1090.23,849.505 1090.26,849.435 1090.3,849.36 1090.34,849.279 1090.38,849.191 1090.43,849.095 1090.48,848.991 1090.54,848.88 1090.59,848.762 1090.66,848.637 1090.72,848.507 1090.79,848.371 1090.87,848.229 1090.94,848.083 1091.02,847.932 1091.1,847.778 1091.18,847.619 1091.27,847.458 1091.44,847.127 1091.63,846.789 1091.82,846.446 1092.01,846.102 1092.2,845.761 1092.4,845.425 1092.59,845.098 1092.69,844.938 1092.78,844.782 1092.97,844.48 1093.16,844.19 1093.35,843.911 1093.53,843.642 1093.71,843.382 1093.89,843.129 1094.07,842.883 1094.25,842.642 1094.43,842.406 1094.61,842.173 1094.96,841.712"/>
      <polyline fill="none"
                vector-effect="none"
                points="1098.55,868.213 1097.5,867.623 1096.43,867.058 1095.35,866.519 1094.26,866.005 1093.15,865.518 1092.04,865.058 1090.91,864.624 1089.78,864.217 1088.63,863.838 1087.47,863.486 1086.31,863.162 1085.14,862.866"/>
      <polyline fill="none"
                vector-effect="none"
                points="1098.55,895.892 1096.97,894.9 1095.4,893.873 1093.86,892.811 1092.34,891.716 1090.85,890.588 1089.38,889.427 1087.94,888.234 1086.53,887.009 1085.14,885.754"/>
      <polyline fill="none"
                vector-effect="none"
                points="1158.42,851.53 1157.89,852.22 1157.38,852.923 1156.88,853.637 1156.4,854.362 1155.94,855.097 1155.49,855.843 1155.06,856.598 1154.65,857.363 1154.25,858.137 1153.87,858.92 1153.51,859.711"/>
      <polyline fill="none"
                vector-effect="none"
                points="1130.28,873.122 1130.09,873.149 1129.99,873.164 1129.88,873.18 1129.77,873.198 1129.65,873.217 1129.51,873.24 1129.37,873.265 1129.3,873.278 1129.21,873.293 1129.13,873.308 1129.04,873.324 1128.95,873.342 1128.85,873.36 1128.75,873.38 1128.65,873.4 1128.54,873.422 1128.43,873.444 1128.31,873.467 1128.19,873.492 1128.07,873.517 1127.94,873.543 1127.81,873.57 1127.68,873.598 1127.4,873.657 1127.11,873.719 1126.81,873.784 1126.5,873.852 1126.18,873.924 1125.85,873.998 1125.51,874.074 1125.17,874.154 1124.82,874.236 1124.47,874.32 1124.11,874.407 1123.74,874.495 1123.01,874.679 1122.27,874.869 1121.54,875.065 1120.81,875.266 1120.45,875.368 1120.1,875.471 1119.75,875.575 1119.41,875.68 1119.06,875.785 1118.73,875.891 1118.39,875.998 1118.06,876.106 1117.42,876.323 1116.78,876.543 1116.15,876.764 1115.54,876.988 1114.93,877.212 1114.33,877.439 1113.73,877.666 1113.14,877.894 1111.96,878.351"/>
      <polyline fill="none"
                vector-effect="none"
                points="1148.6,872.683 1146.94,872.537 1145.27,872.427 1143.6,872.355 1141.93,872.32 1140.26,872.323 1138.59,872.363 1136.93,872.44 1135.26,872.555 1133.6,872.707 1131.94,872.896 1130.28,873.122"/>
      <polyline fill="none"
                vector-effect="none"
                points="1153.51,859.711 1153.45,859.83 1153.43,859.893 1153.39,859.96 1153.36,860.031 1153.33,860.109 1153.29,860.194 1153.25,860.287 1153.2,860.391 1153.15,860.506 1153.09,860.632 1153.03,860.77 1152.97,860.919 1152.9,861.078 1152.83,861.247 1152.76,861.425 1152.68,861.612 1152.6,861.807 1152.51,862.01 1152.42,862.22 1152.33,862.436 1152.24,862.659 1152.15,862.887 1152.05,863.12 1151.96,863.358 1151.86,863.6 1151.66,864.093 1151.46,864.596 1151.26,865.104 1151.07,865.613 1150.87,866.119 1150.69,866.618 1150.51,867.111 1150.33,867.597 1150.16,868.078 1149.99,868.553 1149.83,869.024 1149.67,869.491 1149.51,869.954 1149.35,870.413 1149.2,870.87 1148.9,871.779 1148.6,872.683"/>
      <polyline fill="none"
                vector-effect="none"
                points="1129.15,900.966 1129.12,900.971 1129.09,900.975 1129.05,900.981 1129.03,900.984 1129,900.987 1128.96,900.991 1128.92,900.995 1128.88,901 1128.83,901.004 1128.78,901.01 1128.72,901.015 1128.65,901.021 1128.59,901.027 1128.51,901.033 1128.44,901.04 1128.35,901.047 1128.27,901.055 1128.18,901.062 1128.09,901.07 1127.99,901.078 1127.89,901.087 1127.78,901.095 1127.67,901.104 1127.56,901.114 1127.44,901.123 1127.2,901.143 1126.95,901.163 1126.68,901.185 1126.41,901.207 1126.12,901.23 1125.82,901.253 1125.51,901.277 1125.2,901.302 1124.88,901.328 1124.55,901.353 1124.21,901.38 1123.87,901.406 1123.53,901.433 1123.18,901.46 1122.48,901.515 1121.77,901.57"/>
      <polyline fill="none"
                vector-effect="none"
                points="1121.77,901.57 1121.58,901.576 1121.39,901.581 1121.19,901.586 1120.98,901.59 1120.87,901.592 1120.76,901.593 1120.64,901.594 1120.52,901.595 1120.39,901.596 1120.26,901.596 1120.12,901.596 1119.97,901.595 1119.82,901.595 1119.67,901.594 1119.51,901.592 1119.35,901.591 1119.02,901.587 1118.68,901.583 1118.33,901.578 1117.97,901.573 1117.24,901.562"/>
      <polyline fill="none"
                vector-effect="none"
                points="1140.54,898.425 1138.85,898.919 1137.16,899.374 1135.45,899.79 1133.74,900.166 1132.01,900.504 1130.28,900.801"/>
      <polyline fill="none"
                vector-effect="none"
                points="1158.42,874.417 1157.56,877.056 1156.64,879.674 1155.65,882.27 1154.61,884.842 1153.51,887.39"/>
      <polyline fill="none"
                vector-effect="none"
                points="1111.96,878.351 1110.73,877.202 1109.47,876.081 1108.19,874.99 1106.88,873.928 1105.55,872.896 1104.19,871.896 1102.82,870.927 1101.42,869.989 1099.99,869.085 1098.55,868.213"/>
      <polyline fill="none"
                vector-effect="none"
                points="1140.53,854.802 1140.52,855.09 1140.5,855.378 1140.47,855.666 1140.42,855.953 1140.36,856.239 1140.29,856.524 1140.21,856.808 1140.11,857.09 1139.99,857.371 1139.87,857.65 1139.73,857.927 1139.58,858.202 1139.42,858.474 1139.24,858.744 1139.06,859.011 1138.85,859.275 1138.64,859.536 1138.42,859.794 1138.18,860.047 1137.93,860.298 1137.68,860.544 1137.41,860.786 1137.12,861.024 1136.83,861.258 1136.53,861.487 1136.21,861.711 1135.89,861.931 1135.56,862.145 1135.21,862.354 1134.86,862.558 1134.5,862.756 1134.13,862.949 1133.75,863.136 1133.36,863.317 1132.96,863.492 1132.56,863.66 1132.15,863.823 1131.73,863.979 1131.3,864.129 1130.87,864.272 1130.43,864.408 1129.98,864.537 1129.53,864.66 1129.07,864.776 1128.61,864.884 1128.14,864.985 1127.67,865.08 1127.19,865.166 1126.71,865.246 1126.23,865.318 1125.74,865.383 1125.25,865.44 1124.76,865.49 1124.27,865.532 1123.77,865.566 1123.28,865.593 1122.78,865.612 1122.28,865.624 1121.78,865.627 1121.28,865.624 1120.78,865.612 1120.28,865.593 1119.79,865.566 1119.29,865.532 1118.8,865.49 1118.31,865.44 1117.82,865.383 1117.33,865.318 1116.85,865.246 1116.37,865.166 1115.89,865.08 1115.42,864.985 1114.95,864.884 1114.49,864.776 1114.03,864.66 1113.58,864.537 1113.13,864.408 1112.7,864.272 1112.26,864.129 1111.84,863.979 1111.42,863.823 1111,863.66 1110.6,863.492 1110.2,863.317 1109.81,863.136 1109.43,862.949 1109.06,862.756 1108.7,862.558 1108.35,862.354 1108,862.145 1107.67,861.931 1107.35,861.711 1107.03,861.487 1106.73,861.258 1106.44,861.024 1106.16,860.786 1105.89,860.544 1105.63,860.298 1105.38,860.047 1105.14,859.794 1104.92,859.536 1104.71,859.275 1104.51,859.011 1104.32,858.744 1104.14,858.474 1103.98,858.202 1103.83,857.927 1103.69,857.65 1103.57,857.371 1103.45,857.09 1103.36,856.808 1103.27,856.524 1103.2,856.239 1103.14,855.953 1103.09,855.666 1103.06,855.378 1103.04,855.09 1103.03,854.802"/>
      <polyline fill="none"
                vector-effect="none"
                points="1090.05,849.893 1089.85,850.341 1089.67,850.791 1089.51,851.244 1089.37,851.698 1089.25,852.155 1089.15,852.613 1089.07,853.072 1089,853.533 1088.96,853.994 1088.94,854.456 1088.93,854.918 1088.95,855.379 1088.98,855.841 1089.03,856.302 1089.11,856.762 1089.2,857.22 1089.31,857.678 1089.44,858.133 1089.59,858.587 1089.76,859.038 1089.95,859.487 1090.16,859.933 1090.38,860.377 1090.63,860.816 1090.89,861.253 1091.17,861.685 1091.47,862.113 1091.79,862.537 1092.12,862.957 1092.47,863.371 1092.84,863.781 1093.23,864.185 1093.64,864.583 1094.06,864.976 1094.49,865.363 1094.95,865.743 1095.42,866.117 1095.9,866.485 1096.4,866.845 1096.92,867.198 1097.45,867.544 1097.99,867.882 1098.55,868.213"/>
      <polyline fill="none"
                vector-effect="none"
                points="1103.03,839.229 1102.38,839.495 1101.75,839.771 1101.12,840.055 1100.51,840.348 1099.91,840.649 1099.33,840.958 1098.75,841.276 1098.19,841.602 1097.65,841.935 1097.11,842.276 1096.6,842.624 1096.09,842.979 1095.61,843.341 1095.13,843.71 1094.68,844.086 1094.24,844.467 1093.81,844.855 1093.4,845.248 1093.01,845.648 1092.64,846.052 1092.28,846.462 1091.94,846.876 1091.61,847.295 1091.31,847.719 1091.02,848.146 1090.75,848.578 1090.5,849.013 1090.26,849.452 1090.05,849.893"/>
      <polyline fill="none"
                vector-effect="none"
                points="1098.55,868.213 1099.12,868.536 1099.71,868.85 1100.31,869.156 1100.92,869.454 1101.55,869.743 1102.18,870.023 1102.83,870.294 1103.49,870.556 1104.16,870.808 1104.84,871.051 1105.53,871.284 1106.23,871.508 1106.94,871.722 1107.66,871.925 1108.38,872.119 1109.12,872.302 1109.86,872.475 1110.61,872.637 1111.36,872.789 1112.13,872.93 1112.89,873.061 1113.67,873.18 1114.44,873.289 1115.22,873.386 1116.01,873.473 1116.8,873.549 1117.59,873.613 1118.39,873.666 1119.18,873.709 1119.98,873.74 1120.78,873.759 1121.58,873.768 1122.38,873.765 1123.18,873.751 1123.98,873.725 1124.78,873.689 1125.57,873.641 1126.37,873.582 1127.16,873.512 1127.94,873.431 1128.73,873.339 1129.51,873.236 1130.28,873.122"/>
      <polyline fill="none"
                vector-effect="none"
                points="1145.01,841.391 1144.49,841.096 1143.95,840.808 1143.41,840.527 1142.85,840.252 1142.29,839.985 1141.71,839.726 1141.13,839.474 1140.53,839.229"/>
      <polyline fill="none"
                vector-effect="none"
                points="1153.51,859.711 1153.71,859.263 1153.89,858.813 1154.05,858.36 1154.19,857.906 1154.31,857.449 1154.41,856.991 1154.49,856.532 1154.56,856.071 1154.6,855.61 1154.63,855.148 1154.63,854.687 1154.62,854.225 1154.58,853.763 1154.53,853.302 1154.45,852.843 1154.36,852.384 1154.25,851.926 1154.12,851.471 1153.97,851.017 1153.8,850.566 1153.61,850.117 1153.41,849.671 1153.18,849.227 1152.94,848.788 1152.67,848.351 1152.39,847.919 1152.09,847.491 1151.77,847.067 1151.44,846.647 1151.09,846.233 1150.72,845.823 1150.33,845.419 1149.92,845.021 1149.5,844.628 1149.07,844.241 1148.61,843.861 1148.14,843.487 1147.66,843.119 1147.16,842.759 1146.64,842.406 1146.11,842.06 1145.57,841.722 1145.01,841.391"/>
      <polyline fill="none"
                vector-effect="none"
                points="1130.28,873.122 1131.05,872.997 1131.82,872.861 1132.58,872.715 1133.33,872.557 1134.07,872.39 1134.81,872.212 1135.54,872.023 1136.26,871.825 1136.98,871.616 1137.68,871.397 1138.38,871.169 1139.06,870.931 1139.74,870.683 1140.4,870.426 1141.06,870.159 1141.7,869.884 1142.33,869.599 1142.95,869.306 1143.55,869.004 1144.15,868.694 1144.72,868.375 1145.29,868.049 1145.84,867.714 1146.38,867.372 1146.9,867.023 1147.41,866.666 1147.9,866.302 1148.38,865.931 1148.84,865.554 1149.29,865.17 1149.72,864.781 1150.13,864.385 1150.52,863.983 1150.9,863.577 1151.26,863.165 1151.61,862.748 1151.94,862.326 1152.24,861.9 1152.53,861.469 1152.81,861.035 1153.06,860.597 1153.29,860.155 1153.51,859.711"/>
      <polyline fill="none"
                vector-effect="none"
                points="1121.78,1177.64 1117.25,1181.19"/>
      <polyline fill="none"
                vector-effect="none"
                points="783.01,901.707 766.178,801.198"/>
      <polyline fill="none"
                vector-effect="none"
                points="1121.78,1177.64 1121.78,963.314"/>
      <polyline fill="none"
                vector-effect="none"
                points="1117.25,1181.19 1084.38,984.91"/>
      <polyline fill="none"
                vector-effect="none"
                points="803.582,779.603 766.178,801.198"/>
      <polyline fill="none"
                vector-effect="none"
                points="1084.38,984.91 766.178,801.198"/>
      <polyline fill="none"
                vector-effect="none"
                points="1121.78,963.314 1084.38,984.91"/>
      <polyline fill="none"
                vector-effect="none"
                points="1121.78,963.314 803.582,779.603"/>
      <polyline fill="none"
                vector-effect="none"
                points="1121.78,706.73 1121.78,595.891"/>
      <polyline fill="none"
                vector-effect="none"
                points="1159.19,574.295 1477.38,758.007"/>
      <polyline fill="none"
                vector-effect="none"
                points="1121.78,595.891 1159.19,574.295"/>
      <polyline fill="none"
                vector-effect="none"
                points="1121.78,595.891 1439.98,779.603"/>
      <polyline fill="none"
                vector-effect="none"
                points="1457.39,900.493 1477.38,758.007"/>
      <polyline fill="none"
                vector-effect="none"
                points="1439.98,779.603 1477.38,758.007"/>
      <polyline fill="none"
                vector-effect="none"
                points="1439.98,890.442 1439.98,779.603"/>
      <polyline fill="none"
                vector-effect="none"
                points="1121.78,1215 1125.76,1212.7"/>
      <polyline fill="none"
                vector-effect="none"
                points="1121.78,1215 1126.32,1216.69"/>
      <polyline fill="none"
                vector-effect="none"
                points="1121.78,1429.33 1159.19,1450.93"/>
      <polyline fill="none"
                vector-effect="none"
                points="1121.78,1215 1121.78,1429.33"/>
      <polyline fill="none"
                vector-effect="none"
                points="1126.32,1216.69 1159.19,1450.93"/>
      <polyline fill="none"
                vector-effect="none"
                points="1159.19,1450.93 1254.64,1395.81"/>
    </g>

    <g fill="#000000"
       fill-opacity="1"
       stroke="#000000"
       stroke-opacity="1"
       stroke-width="1"
       stroke-linecap="round"
       stroke-linejoin="bevel"
       transform="matrix(1,0,0,1,0,0)"
       font-family="Arial"
       font-size="12"
       font-weight="400"
       font-style="normal">
    </g>

    <g fill="#000000"
       fill-opacity="1"
       stroke="none"
       transform="matrix(1,0,0,1,0,0)"
       font-family="Arial"
       font-size="12"
       font-weight="400"
       font-style="normal">
      <path vector-effect="none"
            fill-rule="evenodd"
            d="M1138.53,1708.39 L1138.47,1707.19 L1138.3,1706.07 L1138.01,1705.04 L1137.6,1704.1 L1136.41,1702.4 L1134.71,1700.91 L1133.6,1700.21 L1132.24,1699.5 L1130.62,1698.77 L1128.75,1698.04 L1127.19,1697.45 L1125.85,1696.89 L1124.74,1696.36 L1123.84,1695.86 L1122.51,1694.86 L1121.59,1693.75 L1121.07,1692.43 L1120.9,1690.81 L1121.01,1689.65 L1121.34,1688.63 L1121.9,1687.72 L1122.69,1686.96 L1123.68,1686.36 L1124.85,1685.93 L1126.19,1685.67 L1127.69,1685.59 L1129.72,1685.71 L1131.83,1686.06 L1134.01,1686.66 L1136.28,1687.5 L1137.67,1683.62 L1135.37,1682.74 L1132.95,1682.12 L1130.42,1681.74 L1127.79,1681.61 L1125.34,1681.77 L1123.13,1682.25 L1121.18,1683.02 L1119.48,1684.09 L1118.11,1685.45 L1117.12,1687.01 L1116.54,1688.78 L1116.34,1690.76 L1116.47,1692.63 L1116.85,1694.32 L1117.53,1695.82 L1118.47,1697.14 L1119.72,1698.32 L1121.32,1699.43 L1123.27,1700.46 L1125.58,1701.4 L1127.23,1702.02 L1128.64,1702.61 L1129.84,1703.16 L1130.81,1703.68 L1132.3,1704.73 L1133.29,1705.84 L1133.82,1707.17 L1134.02,1708.78 L1133.89,1710.07 L1133.51,1711.21 L1132.87,1712.19 L1131.99,1713.03 L1130.83,1713.71 L1129.44,1714.2 L1127.81,1714.48 L1125.93,1714.57 L1123.48,1714.43 L1120.85,1714.01 L1118.26,1713.34 L1115.87,1712.46 L1115.87,1716.78 L1117.8,1717.52 L1120.08,1718.05 L1122.72,1718.37 L1125.73,1718.47 L1128.58,1718.31 L1131.1,1717.81 L1133.29,1716.96 L1135.15,1715.77 L1136.63,1714.3 L1137.67,1712.59 L1138.32,1710.62 L1138.53,1708.39"/>
    </g>

    <g fill="#000000"
       fill-opacity="1"
       stroke="#000000"
       stroke-opacity="1"
       stroke-width="1"
       stroke-linecap="round"
       stroke-linejoin="bevel"
       transform="matrix(1,0,0,1,0,0)"
       font-family="Arial"
       font-size="12"
       font-weight="400"
       font-style="normal">
    </g>

    <g fill="#000000"
       fill-opacity="1"
       stroke="none"
       transform="matrix(1,0,0,1,0,0)"
       font-family="Arial"
       font-size="12"
       font-weight="400"
       font-style="normal">
      <path vector-effect="none"
            fill-rule="evenodd"
            d="M1161.12,1685.59 L1163.07,1685.71 L1165.08,1686.08 L1167.14,1686.69 L1169.26,1687.55 L1171.08,1683.72 L1168.87,1682.8 L1166.49,1682.14 L1163.92,1681.75 L1161.17,1681.61 L1158.61,1681.75 L1156.21,1682.18 L1153.99,1682.88 L1151.95,1683.87 L1150.1,1685.12 L1148.49,1686.62 L1147.13,1688.33 L1145.99,1690.29 L1145.1,1692.46 L1144.46,1694.81 L1144.08,1697.32 L1143.95,1700.01 L1144.02,1702.15 L1144.22,1704.17 L1144.55,1706.08 L1145.01,1707.85 L1145.61,1709.49 L1146.35,1711.01 L1147.22,1712.4 L1148.22,1713.67 L1149.34,1714.79 L1150.59,1715.77 L1151.94,1716.59 L1153.42,1717.27 L1155,1717.8 L1156.69,1718.17 L1158.5,1718.4 L1160.43,1718.47 L1163.02,1718.39 L1165.29,1718.15 L1167.44,1717.72 L1169.68,1717.02 L1169.68,1713.1 L1167.35,1713.72 L1165.13,1714.17 L1163.04,1714.43 L1161.07,1714.52 L1158.27,1714.29 L1155.8,1713.59 L1154.7,1713.07 L1153.69,1712.42 L1152.76,1711.66 L1151.92,1710.77 L1150.51,1708.69 L1149.49,1706.21 L1148.91,1703.33 L1148.71,1700.05 L1148.91,1696.87 L1149.52,1694.05 L1150.56,1691.58 L1152.02,1689.46 L1152.88,1688.55 L1153.82,1687.77 L1154.84,1687.11 L1155.94,1686.57 L1157.12,1686.14 L1158.38,1685.83 L1159.71,1685.65 L1161.12,1685.59"/>
    </g>

    <g fill="#000000"
       fill-opacity="1"
       stroke="#000000"
       stroke-opacity="1"
       stroke-width="1"
       stroke-linecap="round"
       stroke-linejoin="bevel"
       transform="matrix(1,0,0,1,0,0)"
       font-family="Arial"
       font-size="12"
       font-weight="400"
       font-style="normal">
    </g>

    <g fill="#000000"
       fill-opacity="1"
       stroke="none"
       transform="matrix(1,0,0,1,0,0)"
       font-family="Arial"
       font-size="12"
       font-weight="400"
       font-style="normal">
      <path vector-effect="none"
            fill-rule="evenodd"
            d="M1199.99,1717.98 L1204.67,1717.98 L1190.69,1681.98 L1186.62,1681.98 L1172.62,1717.98 L1177.18,1717.98 L1181.45,1706.87 L1195.67,1706.87 L1199.99,1717.98 M1194.32,1702.87 L1182.97,1702.87 L1187.04,1692.01 L1187.83,1689.45 L1188.58,1686.64 L1190.3,1692.01 L1194.32,1702.87"/>
    </g>

    <g fill="#000000"
       fill-opacity="1"
       stroke="#000000"
       stroke-opacity="1"
       stroke-width="1"
       stroke-linecap="round"
       stroke-linejoin="bevel"
       transform="matrix(1,0,0,1,0,0)"
       font-family="Arial"
       font-size="12"
       font-weight="400"
       font-style="normal">
    </g>

    <g fill="#000000"
       fill-opacity="1"
       stroke="none"
       transform="matrix(1,0,0,1,0,0)"
       font-family="Arial"
       font-size="12"
       font-weight="400"
       font-style="normal">
      <path vector-effect="none"
            fill-rule="evenodd"
            d="M1209.6,1717.98 L1229.78,1717.98 L1229.78,1713.96 L1214.11,1713.96 L1214.11,1682.13 L1209.6,1682.13 L1209.6,1717.98"/>
    </g>

    <g fill="#000000"
       fill-opacity="1"
       stroke="#000000"
       stroke-opacity="1"
       stroke-width="1"
       stroke-linecap="round"
       stroke-linejoin="bevel"
       transform="matrix(1,0,0,1,0,0)"
       font-family="Arial"
       font-size="12"
       font-weight="400"
       font-style="normal">
    </g>

    <g fill="#000000"
       fill-opacity="1"
       stroke="none"
       transform="matrix(1,0,0,1,0,0)"
       font-family="Arial"
       font-size="12"
       font-weight="400"
       font-style="normal">
      <path vector-effect="none"
            fill-rule="evenodd"
            d="M1255.95,1717.98 L1255.95,1714.01 L1240.43,1714.01 L1240.43,1701.21 L1255.04,1701.21 L1255.04,1697.28 L1240.43,1697.28 L1240.43,1686.1 L1255.95,1686.1 L1255.95,1682.13 L1235.91,1682.13 L1235.91,1717.98 L1255.95,1717.98"/>
    </g>

    <g fill="#000000"
       fill-opacity="1"
       stroke="#000000"
       stroke-opacity="1"
       stroke-width="1"
       stroke-linecap="round"
       stroke-linejoin="bevel"
       transform="matrix(1,0,0,1,0,0)"
       font-family="Arial"
       font-size="12"
       font-weight="400"
       font-style="normal">
    </g>

    <g fill="#000000"
       fill-opacity="1"
       stroke="none"
       transform="matrix(1,0,0,1,0,0)"
       font-family="Arial"
       font-size="12"
       font-weight="400"
       font-style="normal">
      <path vector-effect="none"
            fill-rule="evenodd"
            d="M1289.84,1717.98 L1289.84,1682.13 L1286.19,1682.13 L1276.48,1689.66 L1278.78,1692.62 L1281.63,1690.28 L1284.25,1688.11 L1285.72,1686.74 L1285.57,1689.71 L1285.52,1692.92 L1285.52,1717.98 L1289.84,1717.98"/>
    </g>

    <g fill="#000000"
       fill-opacity="1"
       stroke="#000000"
       stroke-opacity="1"
       stroke-width="1"
       stroke-linecap="round"
       stroke-linejoin="bevel"
       transform="matrix(1,0,0,1,0,0)"
       font-family="Arial"
       font-size="12"
       font-weight="400"
       font-style="normal">
    </g>

    <g fill="#000000"
       fill-opacity="1"
       stroke="none"
       transform="matrix(1,0,0,1,0,0)"
       font-family="Arial"
       font-size="12"
       font-weight="400"
       font-style="normal">
      <path vector-effect="none"
            fill-rule="evenodd"
            d="M1304.33,1693.78 L1304.53,1695.2 L1304.78,1695.79 L1305.14,1696.28 L1305.58,1696.68 L1306.1,1696.96 L1307.4,1697.19 L1308.72,1696.96 L1309.27,1696.68 L1309.73,1696.28 L1310.34,1695.2 L1310.56,1693.78 L1310.34,1692.33 L1309.75,1691.25 L1308.75,1690.59 L1307.4,1690.37 L1306.68,1690.43 L1306.05,1690.61 L1305.09,1691.28 L1304.51,1692.35 L1304.33,1693.78"/>
    </g>

    <g fill="#000000"
       fill-opacity="1"
       stroke="#000000"
       stroke-opacity="1"
       stroke-width="1"
       stroke-linecap="round"
       stroke-linejoin="bevel"
       transform="matrix(1,0,0,1,0,0)"
       font-family="Arial"
       font-size="12"
       font-weight="400"
       font-style="normal">
    </g>

    <g fill="#000000"
       fill-opacity="1"
       stroke="none"
       transform="matrix(1,0,0,1,0,0)"
       font-family="Arial"
       font-size="12"
       font-weight="400"
       font-style="normal">
      <path vector-effect="none"
            fill-rule="evenodd"
            d="M1304.33,1715.26 L1304.53,1716.71 L1304.78,1717.29 L1305.14,1717.78 L1305.58,1718.19 L1306.1,1718.47 L1307.4,1718.69 L1308.72,1718.47 L1309.27,1718.19 L1309.73,1717.78 L1310.34,1716.71 L1310.56,1715.26 L1310.51,1714.5 L1310.34,1713.84 L1309.73,1712.78 L1308.72,1712.12 L1307.4,1711.9 L1306.08,1712.12 L1305.12,1712.78 L1304.53,1713.84 L1304.33,1715.26"/>
    </g>

    <g fill="#000000"
       fill-opacity="1"
       stroke="#000000"
       stroke-opacity="1"
       stroke-width="1"
       stroke-linecap="round"
       stroke-linejoin="bevel"
       transform="matrix(1,0,0,1,0,0)"
       font-family="Arial"
       font-size="12"
       font-weight="400"
       font-style="normal">
    </g>

    <g fill="#000000"
       fill-opacity="1"
       stroke="none"
       transform="matrix(1,0,0,1,0,0)"
       font-family="Arial"
       font-size="12"
       font-weight="400"
       font-style="normal">
      <path vector-effect="none"
            fill-rule="evenodd"
            d="M1340.31,1717.98 L1340.31,1713.96 L1322.19,1713.96 L1322.19,1713.76 L1329.67,1706.38 L1331.54,1704.51 L1333.13,1702.86 L1334.43,1701.41 L1335.43,1700.18 L1336.93,1697.92 L1338,1695.71 L1338.65,1693.47 L1338.86,1691.15 L1338.68,1689.06 L1338.13,1687.2 L1337.21,1685.58 L1335.92,1684.19 L1334.32,1683.07 L1332.46,1682.28 L1330.37,1681.78 L1328,1681.61 L1325.07,1681.88 L1322.26,1682.67 L1319.58,1683.99 L1317.01,1685.83 L1319.37,1688.8 L1320.57,1687.91 L1321.72,1687.16 L1322.79,1686.57 L1323.81,1686.13 L1325.85,1685.57 L1328,1685.39 L1329.39,1685.49 L1330.62,1685.81 L1331.7,1686.3 L1332.63,1686.98 L1333.36,1687.87 L1333.88,1688.9 L1334.22,1690.08 L1334.33,1691.42 L1334.15,1693.34 L1333.64,1695.13 L1332.8,1696.87 L1331.6,1698.68 L1330.74,1699.75 L1329.51,1701.13 L1327.93,1702.82 L1325.99,1704.81 L1316.6,1714.3 L1316.6,1717.98 L1340.31,1717.98"/>
    </g>

    <g fill="#000000"
       fill-opacity="1"
       stroke="#000000"
       stroke-opacity="1"
       stroke-width="1"
       stroke-linecap="round"
       stroke-linejoin="bevel"
       transform="matrix(1,0,0,1,0,0)"
       font-family="Arial"
       font-size="12"
       font-weight="400"
       font-style="normal">
    </g>

    <g fill="none"
       stroke="#000000"
       stroke-opacity="1"
       stroke-width="1"
       stroke-linecap="square"
       stroke-linejoin="bevel"
       transform="matrix(1,0,0,1,0,0)"
       font-family="Arial"
       font-size="12"
       font-weight="400"
       font-style="normal">
    </g>
  </g>
</svg>
