<?xml version="1.0" encoding="UTF-8" standalone="no"?>
<svg width="279.4mm"
     height="215.9mm"
     viewBox="0 0 3300 2550"
     xmlns="http://www.w3.org/2000/svg"
     xmlns:xlink="http://www.w3.org/1999/xlink"
     version="1.2"
     baseProfile="tiny">

  <g fill="none"
     stroke="black"
     stroke-width="1"
     fill-rule="evenodd"
     stroke-linecap="square"
     stroke-linejoin="bevel" >

    <!-- Background.  rect matches viewBox -->
    <g fill="#ffffff"
       fill-opacity="1"
       stroke="none"
       transform="matrix(1,0,0,1,0,0)">
      <rect x="0"
            y="0"
            width="3300"
            height="2550"/>
    </g>

    <g fill="#000000"
       fill-opacity="1"
       stroke="#000000"
       stroke-opacity="1"
       stroke-width="5"
       stroke-linecap="round"
       stroke-linejoin="bevel"
       transform="matrix(1,0,0,1,0,0)">
      <polyline
          fill="none"
          vector-effect="none"
          points="1354.64,1340.94 1354.64,1348.9 "/>
      <polyline fill="none"
                vector-effect="none"
                points="1386.5,1339.15 1386.43,1339.47 1386.37,1339.8 1386.33,1340.13 1386.3,1340.46 1386.29,1340.79 1386.29,1341.12 1386.31,1341.45 1386.33,1341.78 1386.38,1342.11 1386.43,1342.44 1386.5,1342.77 1386.59,1343.09 1386.69,1343.42 1386.8,1343.74 1386.92,1344.06 1387.06,1344.38 1387.21,1344.7 1387.38,1345.02 1387.56,1345.33 1387.75,1345.64 1387.96,1345.95 1388.18,1346.25 1388.41,1346.56 1388.65,1346.85 1388.91,1347.15 1389.18,1347.44 1389.46,1347.73 1389.75,1348.01 1390.06,1348.29 1390.37,1348.56 1390.7,1348.84 1391.04,1349.1 1391.39,1349.36 1391.75,1349.62 1392.13,1349.87 1392.51,1350.11 1392.9,1350.35 1393.31,1350.59 1393.72,1350.81 1394.14,1351.04 1394.57,1351.25 1395.01,1351.46 1395.46,1351.67 1395.92,1351.86 1396.39,1352.05 1396.86,1352.24 1397.35,1352.42 1397.83,1352.59 1398.33,1352.75 1398.83,1352.91 1399.34,1353.06 1399.86,1353.2 1400.38,1353.33 1400.91,1353.46 1401.44,1353.58 1401.98,1353.69 1402.52,1353.8 1403.07,1353.9 1403.62,1353.99 1404.17,1354.07 1404.73,1354.14 1405.29,1354.21 1405.85,1354.27 1406.42,1354.32 1406.98,1354.36 1407.55,1354.39 1408.12,1354.42 1408.69,1354.44 1409.26,1354.45 1409.84,1354.45 1410.41,1354.44 1410.98,1354.43 1411.55,1354.41 1412.12,1354.38 1412.69,1354.34 "/>
      <polyline fill="none"
                vector-effect="none"
                points="1354.64,1348.9 1354.66,1349.68 1354.71,1350.46 1354.79,1351.24 1354.9,1352.01 1355.05,1352.79 1355.23,1353.56 1355.45,1354.33 1355.69,1355.1 1355.97,1355.86 1356.29,1356.62 1356.63,1357.37 1357.01,1358.12 1357.41,1358.86 1357.85,1359.6 1358.32,1360.33 1358.82,1361.05 1359.35,1361.77 1359.92,1362.48 1360.51,1363.18 1361.13,1363.87 1361.78,1364.55 1362.46,1365.23 1363.17,1365.89 1363.9,1366.54 1364.66,1367.19 1365.45,1367.82 1366.27,1368.44 1367.11,1369.05 1367.98,1369.65 1368.88,1370.23 1369.79,1370.8 1370.74,1371.36 1371.7,1371.9 1372.69,1372.43 1373.7,1372.95 1374.73,1373.45 1375.79,1373.94 1376.86,1374.41 1377.95,1374.87 1379.07,1375.31 1380.2,1375.74 1381.35,1376.15 1382.51,1376.54 1383.69,1376.92 1384.89,1377.28 1386.11,1377.62 1387.33,1377.94 1388.57,1378.25 1389.83,1378.54 1391.09,1378.81 1392.37,1379.07 1393.65,1379.3 1394.95,1379.52 1396.25,1379.72 1397.57,1379.9 1398.89,1380.07 1400.21,1380.21 1401.55,1380.33 1402.88,1380.44 1404.23,1380.53 1405.57,1380.59 1406.92,1380.64 1408.27,1380.67 1409.62,1380.68 1410.97,1380.67 1412.32,1380.65 1413.66,1380.6 1415.01,1380.53 1416.35,1380.45 "/>
      <polyline fill="none"
                vector-effect="none"
                points="1391.59,1340.34 1391.24,1340.59
                        1390.89,1340.85 1390.56,1341.12
                        1390.24,1341.39 1389.93,1341.66
                        1389.63,1341.94 1389.35,1342.22
                        1389.07,1342.51 1388.81,1342.8 1388.56,1343.09
                        1388.32,1343.39 1388.1,1343.69 1387.89,1343.99
                        1387.69,1344.3 1387.5,1344.61 1387.33,1344.92"/>
      <polyline fill="none"
                vector-effect="none"
                points="1361.45,1325.63 1360.81,1326.31 1360.21,1327.01 1359.63,1327.71 1359.09,1328.42 1358.57,1329.14 1358.09,1329.86 1357.64,1330.59 1357.21,1331.33 1356.82,1332.07 1356.46,1332.82 1356.14,1333.57 1355.84,1334.33 1355.58,1335.09 1355.35,1335.86 1355.15,1336.63 1354.98,1337.4 1354.85,1338.17 1354.75,1338.94 1354.68,1339.72 1354.64,1340.5 1354.64,1341.27 1354.67,1342.05 1354.74,1342.82 1354.83,1343.6 1354.96,1344.37 1355.12,1345.14 1355.32,1345.91 1355.54,1346.68 1355.8,1347.44 1356.09,1348.2 1356.42,1348.95 1356.77,1349.7 1357.16,1350.44 1357.58,1351.18 1358.02,1351.91 1358.5,1352.64 1359.01,1353.36 1359.56,1354.07 1360.13,1354.77 1360.73,1355.47 1361.36,1356.15 1362.01,1356.83 1362.7,1357.5 1363.41,1358.16 1364.16,1358.8 1364.93,1359.44 1365.72,1360.07 1366.54,1360.68 1367.39,1361.28 1368.27,1361.87 1369.16,1362.45 1370.09,1363.02 1371.03,1363.57 1372,1364.11 1372.99,1364.63 1374.01,1365.14 1375.04,1365.64 1376.1,1366.12 1377.17,1366.59 1378.27,1367.04 1379.38,1367.47 1380.51,1367.89 1381.66,1368.29 1382.83,1368.68 1384.01,1369.05 1385.21,1369.41 1386.42,1369.74 1387.64,1370.06 1388.88,1370.36 1390.13,1370.65 1391.4,1370.92 1392.67,1371.17 1393.96,1371.4 1395.25,1371.61 1396.55,1371.8 1397.86,1371.98 1399.18,1372.14 1400.5,1372.28 1401.83,1372.4 1403.16,1372.5 1404.5,1372.58 1405.84,1372.64 1407.18,1372.69 1408.53,1372.72 1409.87,1372.72 1411.22,1372.71 1412.56,1372.68 1413.9,1372.63 1415.24,1372.56"/>
      <polyline fill="none"
                vector-effect="none"
                points="1354.64,1302.36 1354.64,1310.32"/>
      <polyline fill="none"
                vector-effect="none"
                points="1354.67,1301.22 1354.64,1301.99 1354.64,1302.77 1354.68,1303.54 1354.74,1304.31 1354.84,1305.09 1354.97,1305.86 1355.14,1306.63 1355.33,1307.4 1355.56,1308.16 1355.82,1308.92 1356.12,1309.68 1356.44,1310.43 1356.8,1311.18 1357.19,1311.92 1357.61,1312.65 1358.06,1313.38 1358.54,1314.11 1359.05,1314.82 1359.59,1315.53 1360.16,1316.24 1360.76,1316.93 1361.39,1317.61 1362.05,1318.29 1362.74,1318.96 1363.45,1319.61 1364.2,1320.26 1364.97,1320.89 1365.76,1321.52 1366.58,1322.13 1367.43,1322.73 1368.31,1323.32 1369.2,1323.9 1370.13,1324.46 1371.07,1325.01 1372.04,1325.55 1373.03,1326.07 1374.04,1326.58 1375.08,1327.07 1376.13,1327.55 1377.2,1328.02 1378.3,1328.47 1379.41,1328.9 1380.54,1329.32 1381.69,1329.72 1382.85,1330.11 1384.03,1330.48 1385.23,1330.83 1386.44,1331.17 1387.66,1331.49 1388.9,1331.79 1390.15,1332.07 1391.41,1332.34 1392.68,1332.59 1393.96,1332.82 1395.25,1333.03 1396.55,1333.22 1397.86,1333.4 1399.18,1333.56 1400.5,1333.7 1401.82,1333.82 1403.15,1333.92 1404.49,1334 1405.83,1334.06 1407.17,1334.11 1408.51,1334.14 1409.85,1334.14 "/>
      <polyline fill="none"
                vector-effect="none"
                points="1354.64,1310.32 1354.66,1311.09 1354.7,1311.87 1354.79,1312.64 1354.9,1313.41 1355.05,1314.18 1355.23,1314.95 1355.44,1315.72 1355.68,1316.48 1355.96,1317.24 1356.27,1317.99 1356.61,1318.74 1356.98,1319.48 1357.38,1320.22 1357.81,1320.96 1358.28,1321.68 1358.77,1322.4 1359.3,1323.11 1359.85,1323.82 1360.44,1324.52 1361.05,1325.21 1361.69,1325.89 1362.36,1326.56 1363.06,1327.22 1363.79,1327.87 1364.54,1328.51 1365.33,1329.14 1366.13,1329.76 1366.97,1330.36 1367.82,1330.96 1368.71,1331.54 1369.62,1332.11 1370.55,1332.67 1371.5,1333.21 1372.48,1333.74 1373.48,1334.26 1374.5,1334.76 1375.54,1335.25 1376.61,1335.72 1377.69,1336.18 1378.79,1336.62 1379.91,1337.05 1381.05,1337.46 1382.2,1337.86 1383.37,1338.24 1384.56,1338.6 1385.76,1338.94 1386.97,1339.27 1388.2,1339.58 1389.44,1339.88 1390.7,1340.15 1391.96,1340.41 1393.24,1340.65 1394.52,1340.87 1395.82,1341.08 1397.12,1341.26 1398.43,1341.43 1399.74,1341.58 1401.07,1341.71 1402.39,1341.82 1403.73,1341.92 1405.06,1341.99 1406.4,1342.05 1407.74,1342.08 1409.08,1342.1 1410.42,1342.1 1411.76,1342.08 "/>
      <polyline fill="none"
                vector-effect="none"
                points="1354.64,1379.52 1354.64,1387.48 "/>
      <polyline fill="none"
                vector-effect="none"
                points="1386.5,1377.72 1386.43,1378.05 1386.37,1378.38
                        1386.33,1378.71 1386.3,1379.03 1386.29,1379.36
                        1386.29,1379.69 1386.3,1380.02 1386.33,1380.35
                        1386.37,1380.67 1386.43,1381 1386.5,1381.33
                        1386.58,1381.65 1386.68,1381.98 1386.79,1382.3
                        1386.91,1382.62 1387.05,1382.94 1387.2,1383.25
                        1387.37,1383.57 1387.54,1383.88
                        1387.73,1384.19 1387.94,1384.5 1388.15,1384.8
                        1388.38,1385.1 1388.62,1385.4 1388.88,1385.69
                        1389.14,1385.98 1389.42,1386.27
                        1389.71,1386.55 1390.01,1386.83 1390.33,1387.1
                        1390.65,1387.37 1390.99,1387.64 1391.34,1387.9
                        1391.69,1388.15 1392.06,1388.4 1392.44,1388.65
                        1392.83,1388.89 1393.23,1389.12
                        1393.64,1389.35 1394.06,1389.57
                        1394.49,1389.79 1394.92,1390 1395.37,1390.2
                        1395.82,1390.4 1396.29,1390.59 1396.76,1390.78
                        1397.24,1390.96 1397.72,1391.13
                        1398.21,1391.29 1398.71,1391.45 1399.22,1391.6
                        1399.73,1391.74 1400.25,1391.88
                        1400.77,1392.01 1401.3,1392.13 1401.83,1392.24
                        1402.37,1392.35 1402.91,1392.45
                        1403.46,1392.54 1404.01,1392.62 1404.56,1392.7
                        1405.12,1392.77 1405.68,1392.83
                        1406.24,1392.88 1406.81,1392.93
                        1407.37,1392.96 1407.94,1392.99
                        1408.51,1393.01 1409.07,1393.02
                        1409.64,1393.03 1410.21,1393.03
                        1410.78,1393.01 1411.35,1392.99
                        1411.92,1392.97 1412.48,1392.93
                        1413.05,1392.89 1413.61,1392.84
                        1414.17,1392.78 1414.72,1392.71
                        1415.28,1392.64 1415.83,1392.56
                        1416.38,1392.46 1416.92,1392.37
                        1417.46,1392.26 1417.99,1392.15 "/>
      <polyline fill="none"
                vector-effect="none"
                points="1391.59,1378.92 1391.24,1379.17 1390.89,1379.43 1390.56,1379.7 1390.24,1379.97 1389.93,1380.24 1389.63,1380.52 1389.35,1380.8 1389.07,1381.09 1388.81,1381.38 1388.56,1381.67 1388.32,1381.97 1388.1,1382.27 1387.89,1382.57 1387.69,1382.88 1387.5,1383.19 1387.33,1383.5"/>
      <polyline fill="none"
                vector-effect="none"
                points="1410.97,1347.74 1409.65,1347.74 1408.34,1347.74 1407.03,1347.77 1405.71,1347.82 1404.4,1347.88 1403.1,1347.96 1401.79,1348.06 1400.49,1348.18 1399.2,1348.32 1397.91,1348.47 1396.63,1348.64 1395.36,1348.83 1394.09,1349.04 1392.84,1349.26 1391.59,1349.5"/>
      <polyline fill="none"
                vector-effect="none"
                points="1361.45,1364.21 1360.81,1364.89 1360.21,1365.59 1359.63,1366.29 1359.09,1367 1358.57,1367.72 1358.09,1368.44 1357.64,1369.17 1357.21,1369.91 1356.82,1370.65 1356.46,1371.4 1356.14,1372.16 1355.84,1372.91 1355.58,1373.68 1355.35,1374.44 1355.15,1375.21 1354.98,1375.98 1354.85,1376.75 1354.75,1377.53 1354.68,1378.3 1354.64,1379.08 1354.64,1379.86 1354.67,1380.63 1354.74,1381.41 1354.83,1382.18 1354.96,1382.96 1355.12,1383.73 1355.32,1384.5 1355.55,1385.26 1355.8,1386.02 1356.1,1386.78 1356.42,1387.54 1356.77,1388.28 1357.16,1389.03 1357.58,1389.77 1358.03,1390.5 1358.51,1391.22 1359.02,1391.94 1359.56,1392.65 1360.13,1393.36 1360.73,1394.05 1361.36,1394.74 1362.02,1395.42 1362.71,1396.08 1363.42,1396.74 1364.17,1397.39 1364.94,1398.03 1365.73,1398.65 1366.56,1399.27 1367.4,1399.87 1368.28,1400.46 1369.18,1401.04 1370.1,1401.6 1371.05,1402.15 1372.02,1402.69 1373.01,1403.22 1374.02,1403.73 1375.06,1404.22 1376.11,1404.71 1377.19,1405.17 1378.28,1405.62 1379.4,1406.06 1380.53,1406.48 1381.68,1406.88 1382.85,1407.27 1384.03,1407.64 1385.23,1407.99 1386.44,1408.33 1387.67,1408.65 1388.91,1408.95 1390.16,1409.23 1391.42,1409.5 1392.69,1409.75 1393.98,1409.98 1395.27,1410.19 1396.58,1410.39 1397.89,1410.56 1399.2,1410.72 1400.53,1410.86 1401.86,1410.98 1403.19,1411.08 1404.53,1411.16 1405.87,1411.22 1407.21,1411.27 1408.56,1411.29 1409.9,1411.3 1411.25,1411.29 1412.59,1411.26 1413.93,1411.21 1415.27,1411.14 1416.61,1411.05 1417.94,1410.94 1419.27,1410.82 1420.59,1410.67"/>
      <polyline fill="none"
                vector-effect="none"
                points="1354.64,1387.48 1354.66,1388.26 1354.71,1389.04 1354.79,1389.82 1354.9,1390.59 1355.05,1391.37 1355.23,1392.14 1355.45,1392.91 1355.7,1393.68 1355.97,1394.44 1356.29,1395.2 1356.63,1395.95 1357.01,1396.7 1357.41,1397.44 1357.85,1398.18 1358.32,1398.91 1358.82,1399.63 1359.36,1400.35 1359.92,1401.06 1360.51,1401.76 1361.13,1402.45 1361.78,1403.14 1362.46,1403.81 1363.17,1404.47 1363.91,1405.13 1364.67,1405.77 1365.46,1406.4 1366.28,1407.02 1367.12,1407.63 1367.99,1408.23 1368.88,1408.81 1369.8,1409.38 1370.74,1409.94 1371.71,1410.49 1372.7,1411.02 1373.71,1411.53 1374.74,1412.04 1375.8,1412.52 1376.87,1413 1377.96,1413.45 1379.08,1413.9 1380.21,1414.32 1381.36,1414.73 1382.52,1415.12 1383.71,1415.5 1384.9,1415.86 1386.12,1416.2 1387.34,1416.53 1388.58,1416.83 1389.84,1417.12 1391.1,1417.4 1392.38,1417.65 1393.67,1417.89 1394.96,1418.1 1396.27,1418.3 1397.58,1418.48 1398.9,1418.65 1400.23,1418.79 1401.56,1418.91 1402.9,1419.02 1404.24,1419.11 1405.59,1419.17 1406.94,1419.22 1408.28,1419.25 1409.63,1419.26 1410.98,1419.25 1412.33,1419.23 1413.68,1419.18 1415.03,1419.11 1416.37,1419.03 1417.71,1418.92 1419.04,1418.8 1420.37,1418.66 1421.69,1418.5"/>
      <polyline fill="none"
                vector-effect="none"
                points="1070.92,1417.73 1389.12,1601.44"/>
      <polyline fill="none"
                vector-effect="none"
                points="1144.52,1742.66 826.326,1558.94"/>
      <polyline fill="none"
                vector-effect="none"
                points="1739.11,1031.95 1886.99,946.571"/>
      <polyline fill="none"
                vector-effect="none"
                points="1354.67,1388.62 1187.59,1485.09"/>
      <polyline fill="none"
                vector-effect="none"
                points="1409.69,1724.28 1631.9,1595.99"/>
      <polyline fill="none"
                vector-effect="none"
                points="2205.18,1130.28 1886.99,946.571"/>
      <polyline fill="none"
                vector-effect="none"
                points="2205.18,1314.61 2205.18,1130.28"/>
      <polyline fill="none"
                vector-effect="none"
                points="1144.52,1987.6 826.326,1803.89"/>
      <polyline fill="none"
                vector-effect="none"
                points="2045.55,1222.44 2205.18,1130.28"/>
      <polyline fill="none"
                vector-effect="none"
                points="826.326,1558.94 1070.92,1417.73"/>
      <polyline fill="none"
                vector-effect="none"
                points="1144.52,1987.6 1144.52,1742.66"/>
      <polyline fill="none"
                vector-effect="none"
                points="1411.36,1344.92 1410.97,1347.74"/>
      <polyline fill="none"
                vector-effect="none"
                points="826.326,1803.89 826.326,1558.94"/>
      <polyline fill="none"
                vector-effect="none"
                points="1409.69,1724.28 1389.12,1601.44"/>
      <polyline fill="none"
                vector-effect="none"
                points="1144.52,1987.6 1409.69,1834.51"/>
      <polyline fill="none"
                vector-effect="none"
                points="1144.52,1742.66 1389.12,1601.44"/>
      <polyline fill="none"
                vector-effect="none"
                points="1390.94,1536.64 1390.77,1536.92 1390.61,1537.21 1390.46,1537.5 1390.33,1537.8 1390.21,1538.09 1390.1,1538.39 1390.01,1538.69 1389.93,1538.98 1389.86,1539.29 1389.81,1539.59 1389.77,1539.89 1389.75,1540.19 1389.74,1540.49 1389.74,1540.8 1389.76,1541.1 1389.79,1541.4 1389.84,1541.7 1389.89,1542 1389.97,1542.3 1390.05,1542.6 1390.15,1542.9 1390.26,1543.2 1390.39,1543.49 1390.53,1543.78 1390.68,1544.07 1390.85,1544.36 1391.03,1544.64 1391.22,1544.93 1391.42,1545.2 1391.64,1545.48 1391.87,1545.75 1392.11,1546.02 1392.37,1546.29 1392.63,1546.55 1392.91,1546.8 1393.2,1547.06 1393.5,1547.3 1393.81,1547.55 1394.14,1547.79 1394.47,1548.02 1394.81,1548.25 1395.17,1548.47 1395.53,1548.69 1395.91,1548.9 1396.29,1549.11 1396.69,1549.31 1397.09,1549.5 1397.5,1549.69 1397.92,1549.87 1398.35,1550.05 1398.78,1550.22 1399.22,1550.38 1399.67,1550.53 1400.13,1550.68 1400.6,1550.82 1401.07,1550.96 1401.54,1551.09 1402.02,1551.21 1402.51,1551.32 1403,1551.42 1403.5,1551.52 1404,1551.61 1404.5,1551.69 1405.01,1551.77 1405.52,1551.84 1406.04,1551.9 1406.55,1551.95 1407.07,1551.99 1407.59,1552.03 1408.12,1552.05 1408.64,1552.07 1409.16,1552.09 1409.69,1552.09 1410.21,1552.09 1410.74,1552.07 1411.26,1552.05 1411.78,1552.03 1412.3,1551.99 1412.82,1551.95 1413.34,1551.9 1413.85,1551.84 1414.37,1551.77 1414.87,1551.69 1415.38,1551.61 1415.88,1551.52 1416.38,1551.42 1416.87,1551.32 1417.35,1551.21 1417.84,1551.09 1418.31,1550.96 1418.78,1550.82 1419.25,1550.68 1419.7,1550.53 1420.15,1550.38 1420.6,1550.22 1421.03,1550.05 1421.46,1549.87 1421.88,1549.69 1422.29,1549.5 1422.69,1549.31 1423.08,1549.11 1423.47,1548.9 1423.84,1548.69 1424.21,1548.47 1424.56,1548.25 1424.91,1548.02 1425.24,1547.79 1425.56,1547.55 1425.88,1547.3 1426.18,1547.06 1426.47,1546.8 1426.74,1546.55 1427.01,1546.29 1427.27,1546.02 1427.51,1545.75 1427.74,1545.48 1427.95,1545.2 1428.16,1544.93 1428.35,1544.64 1428.53,1544.36 1428.7,1544.07 1428.85,1543.78 1428.99,1543.49 1429.11,1543.2 1429.23,1542.9 1429.33,1542.6 1429.41,1542.3 1429.48,1542 1429.54,1541.7 1429.59,1541.4 1429.62,1541.1 1429.64,1540.8 1429.64,1540.49 1429.63,1540.19 1429.6,1539.89 1429.57,1539.59 1429.51,1539.29 1429.45,1538.98 1429.37,1538.69 1429.28,1538.39 1429.17,1538.09 1429.05,1537.8 1428.92,1537.5 1428.77,1537.21 1428.61,1536.92 1428.44,1536.64"/>
      <polyline fill="none"
                vector-effect="none"
                points="826.326,1130.9 1070.92,1272.11"/>
      <polyline fill="none"
                vector-effect="none"
                points="1070.92,1272.11 1091.49,1149.27"/>
      <polyline fill="none"
                vector-effect="none"
                points="1430.26,1479.58 1409.69,1332.98"/>
      <polyline fill="none"
                vector-effect="none"
                points="826.326,885.946 826.326,1130.9"/>
      <polyline fill="none"
                vector-effect="none"
                points="2205.18,1559.56 1886.99,1743.27"/>
      <polyline fill="none"
                vector-effect="none"
                points="2205.18,1314.61 2205.18,1559.56"/>
      <polyline fill="none"
                vector-effect="none"
                points="1070.92,1272.11 1187.59,1204.75"/>
      <polyline fill="none"
                vector-effect="none"
                points="1886.99,1498.32 1886.99,1743.27"/>
      <polyline fill="none"
                vector-effect="none"
                points="2205.18,1314.61 1886.99,1498.32"/>
      <polyline fill="none"
                vector-effect="none"
                points="1144.52,702.234 1395.69,847.247"/>
      <polyline fill="none"
                vector-effect="none"
                points="1464.7,887.09 2205.18,1314.61"/>
      <polyline fill="none"
                vector-effect="none"
                points="1144.52,702.234 826.326,885.946"/>
      <polyline fill="none"
                vector-effect="none"
                points="1409.69,1332.98 1091.49,1149.27"/>
      <polyline fill="none"
                vector-effect="none"
                points="1430.26,1479.58 1886.99,1743.27"/>
      <polyline fill="none"
                vector-effect="none"
                points="826.326,885.946 1077.98,1031.24"/>
      <polyline fill="none"
                vector-effect="none"
                points="1409.69,1222.75 1886.99,1498.32"/>
      <polyline fill="none"
                vector-effect="none"
                points="1389.74,1039.04 1389.75,1038.74 1389.77,1038.45 1389.8,1038.15 1389.85,1037.85 1389.9,1037.56 1389.98,1037.26 1390.06,1036.97 1390.16,1036.68 1390.27,1036.39 1390.4,1036.1 1390.54,1035.81 1390.69,1035.53 1390.85,1035.25 1391.03,1034.97 1391.21,1034.69 1391.42,1034.42 1391.63,1034.15 1391.85,1033.88 1392.09,1033.62 1392.34,1033.35 1392.6,1033.1 1392.87,1032.85 1393.15,1032.6 1393.44,1032.35 1393.75,1032.11 1394.06,1031.88 1394.39,1031.65 1394.72,1031.42 1395.07,1031.2 1395.42,1030.99 1395.79,1030.78 1396.16,1030.57 1396.55,1030.37 1396.94,1030.18 1397.34,1029.99 1397.75,1029.81 1398.16,1029.64 1398.59,1029.47 1399.02,1029.31 1399.46,1029.15 1399.9,1029 1400.35,1028.86 1400.81,1028.72 1401.28,1028.6 1401.75,1028.47 1402.22,1028.36 1402.7,1028.25 1403.18,1028.15 1403.67,1028.06 1404.17,1027.97 1404.66,1027.89 1405.16,1027.82 1405.67,1027.76 1406.17,1027.7 1406.68,1027.65 1407.19,1027.61 1407.7,1027.58 1408.21,1027.55 1408.73,1027.53 1409.24,1027.52 1409.76,1027.52 1410.27,1027.53 1410.79,1027.54 1411.3,1027.56 1411.81,1027.59 1412.32,1027.62 1412.83,1027.67 1413.34,1027.72 1413.84,1027.77 1414.35,1027.84 1414.85,1027.91 1415.34,1027.99 1415.83,1028.08 1416.32,1028.18 1416.8,1028.28 1417.28,1028.39 1417.76,1028.5 1418.22,1028.63 1418.69,1028.76 1419.14,1028.9 1419.59,1029.04 1420.04,1029.19 1420.47,1029.35 1420.9,1029.51 1421.33,1029.68 1421.74,1029.86 1422.15,1030.04 1422.54,1030.23 1422.93,1030.43 1423.31,1030.63 1423.69,1030.83 1424.05,1031.04 1424.4,1031.26 1424.74,1031.48 1425.08,1031.71 1425.4,1031.94 1425.71,1032.18 1426.01,1032.42 1426.3,1032.66 1426.58,1032.91 1426.85,1033.17 1427.11,1033.42 1427.35,1033.68 1427.59,1033.95 1427.81,1034.22 1428.02,1034.49 1428.21,1034.76 1428.4,1035.04 1428.57,1035.32 1428.73,1035.6 1428.88,1035.89 1429.01,1036.18 1429.13,1036.46 1429.24,1036.75 1429.34,1037.05 1429.42,1037.34 1429.49,1037.63 1429.55,1037.93 1429.59,1038.23 1429.62,1038.52 1429.64,1038.82 1429.64,1039.12 1429.63,1039.41 1429.6,1039.71 1429.57,1040.01 1429.52,1040.3 1429.46,1040.6 1429.38,1040.89 1429.29,1041.19 1429.19,1041.48 1429.07,1041.77 1428.94,1042.05 1428.8,1042.34 1428.65,1042.62 1428.48,1042.91 1428.3,1043.18 1428.11,1043.46 1427.91,1043.73 1427.69,1044 1427.46,1044.27 1427.22,1044.53 1426.97,1044.79 1426.71,1045.05 1426.44,1045.3 1426.15,1045.55 1425.85,1045.79 1425.55,1046.03 1425.23,1046.26 1424.9,1046.49 1424.56,1046.72 1424.22,1046.93 1423.86,1047.15 1423.49,1047.36 1423.11,1047.56 1422.73,1047.76 1422.33,1047.95 1421.93,1048.13 1421.52,1048.31 1421.1,1048.49 1420.68,1048.65 1420.24,1048.81 1419.8,1048.97 1419.36,1049.11 1418.9,1049.26 1418.44,1049.39 1417.98,1049.52 1417.51,1049.64 1417.03,1049.75 1416.55,1049.85 1416.06,1049.95 1415.57,1050.04 1415.08,1050.13 1414.58,1050.21 1414.08,1050.27 1413.58,1050.34 1413.07,1050.39 1412.56,1050.44 1412.05,1050.48 1411.54,1050.51 1411.03,1050.53 1410.51,1050.55 1410,1050.56 1409.49,1050.56"/>
      <polyline fill="none"
                vector-effect="none"
                points="1354.64,877.985 1354.64,885.946"/>
      <polyline fill="none"
                vector-effect="none"
                points="1464.74,885.946 1464.74,877.985"/>
      <polyline fill="none"
                vector-effect="none"
                points="1387.33,881.966 1387.5,881.651 1387.69,881.339 1387.89,881.03 1388.11,880.724 1388.34,880.421 1388.58,880.121 1388.83,879.825 1389.09,879.532 1389.37,879.243 1389.66,878.958 1389.96,878.678 1390.28,878.401 1390.6,878.129 1390.94,877.862 1391.29,877.6 1391.65,877.343 1392.02,877.091 1392.4,876.844 1392.79,876.602 1393.19,876.367 1393.6,876.136 1394.02,875.912 1394.45,875.694 1394.89,875.482 1395.34,875.276 1395.79,875.077 1396.26,874.884 1396.73,874.697 1397.21,874.518 1397.7,874.345 1398.19,874.179 1398.69,874.02 1399.2,873.869 1399.72,873.724 1400.24,873.587 1400.76,873.457 1401.3,873.335 1401.83,873.22 1402.37,873.113 1402.92,873.014 1403.47,872.922 1404.02,872.838 1404.58,872.762 1405.14,872.694 1405.7,872.634 1406.27,872.581 1406.83,872.537 1407.4,872.501 1407.97,872.473 1408.54,872.452 1409.12,872.44 1409.69,872.436 1410.26,872.44 1410.83,872.452 1411.4,872.473 1411.97,872.501 1412.54,872.537 1413.11,872.581 1413.68,872.634 1414.24,872.694 1414.8,872.762 1415.35,872.838 1415.91,872.922 1416.46,873.014 1417,873.113 1417.55,873.22 1418.08,873.335 1418.61,873.457 1419.14,873.587 1419.66,873.724 1420.18,873.869 1420.68,874.02 1421.19,874.179 1421.68,874.345 1422.17,874.518 1422.65,874.697 1423.12,874.884 1423.59,875.077 1424.04,875.276 1424.49,875.482 1424.93,875.694 1425.36,875.912 1425.78,876.136 1426.19,876.367 1426.59,876.602 1426.98,876.844 1427.36,877.091 1427.73,877.343 1428.09,877.6 1428.44,877.862 1428.77,878.129 1429.1,878.401 1429.41,878.678 1429.72,878.958 1430.01,879.243 1430.28,879.532 1430.55,879.825 1430.8,880.121 1431.04,880.421 1431.27,880.724 1431.48,881.03 1431.69,881.339 1431.87,881.651 1432.05,881.966"/>
      <polyline fill="none"
                vector-effect="none"
                points="1433.09,877.985 1433.08,878.317
                        1433.06,878.648 1433.03,878.979 1432.98,879.31
                        1432.91,879.639 1432.84,879.968
                        1432.74,880.295 1432.64,880.621
                        1432.52,880.945 1432.39,881.268
                        1432.24,881.589 1432.08,881.907
                        1431.91,882.223 1431.72,882.537
                        1431.52,882.848 1431.31,883.155 1431.08,883.46
                        1430.84,883.762 1430.59,884.06 1430.33,884.354
                        1430.05,884.644 1429.76,884.931
                        1429.46,885.213 1429.15,885.491
                        1428.82,885.765 1428.48,886.033
                        1428.14,886.297 1427.78,886.556 1427.41,886.81
                        1427.03,887.058 1426.64,887.301
                        1426.24,887.538 1425.82,887.77 1425.4,887.996
                        1424.97,888.215 1424.53,888.429
                        1424.09,888.636 1423.63,888.837
                        1423.16,889.031 1422.69,889.219
                        1422.21,889.399 1421.72,889.573 1421.22,889.74
                        1420.72,889.9 1420.21,890.053 1419.69,890.198
                        1419.17,890.336 1418.64,890.467 1418.11,890.59
                        1417.57,890.706 1417.03,890.813
                        1416.48,890.914 1415.93,891.006 1415.37,891.09
                        1414.82,891.167 1414.25,891.236
                        1413.69,891.296 1413.12,891.349
                        1412.55,891.394 1411.98,891.43 1411.41,891.459
                        1410.84,891.479 1410.26,891.491
                        1409.69,891.495 1409.11,891.491
                        1408.54,891.479 1407.97,891.459 1407.4,891.43
                        1406.82,891.394 1406.26,891.349
                        1405.69,891.296 1405.12,891.236
                        1404.56,891.167 1404,891.09 1403.45,891.006
                        1402.9,890.914 1402.35,890.813 1401.81,890.706
                        1401.27,890.59 1400.73,890.467 1400.21,890.336
                        1399.68,890.198 1399.17,890.053 1398.66,889.9
                        1398.16,889.74 1397.66,889.573 1397.17,889.399
                        1396.69,889.219 1396.21,889.031
                        1395.75,888.837 1395.29,888.636
                        1394.84,888.429 1394.4,888.215 1393.97,887.996
                        1393.55,887.77 1393.14,887.538 1392.74,887.301
                        1392.35,887.058 1391.97,886.81 1391.6,886.556
                        1391.24,886.297 1390.89,886.033
                        1390.56,885.765 1390.23,885.491
                        1389.92,885.213 1389.62,884.931
                        1389.33,884.644 1389.05,884.354 1388.79,884.06
                        1388.54,883.762 1388.3,883.46 1388.07,883.155
                        1387.86,882.848 1387.66,882.537
                        1387.47,882.223 1387.3,881.907 1387.14,881.589
                        1386.99,881.268 1386.86,880.945
                        1386.74,880.621 1386.63,880.295
                        1386.54,879.968 1386.46,879.639 1386.4,879.31
                        1386.35,878.979 1386.32,878.648 1386.3,878.317
                        1386.29,877.985 1386.3,877.654 1386.32,877.322
                        1386.35,876.992 1386.4,876.661 1386.46,876.332
                        1386.54,876.003 1386.63,875.676 1386.74,875.35
                        1386.86,875.025 1386.99,874.703
                        1387.14,874.382 1387.3,874.064 1387.47,873.748
                        1387.66,873.434 1387.86,873.123
                        1388.07,872.815 1388.3,872.511 1388.54,872.209
                        1388.79,871.911 1389.05,871.617
                        1389.33,871.326 1389.62,871.04 1389.92,870.758
                        1390.23,870.48 1390.56,870.206 1390.89,869.937
                        1391.24,869.674 1391.6,869.415 1391.97,869.161
                        1392.35,868.913 1392.74,868.67 1393.14,868.432
                        1393.55,868.201 1393.97,867.975 1394.4,867.755
                        1394.84,867.542 1395.29,867.335
                        1395.75,867.134 1396.21,866.94 1396.69,866.752
                        1397.17,866.571 1397.66,866.397
                        1398.16,866.231 1398.66,866.071
                        1399.17,865.918 1399.68,865.772
                        1400.21,865.634 1400.73,865.504
                        1401.27,865.381 1401.81,865.265
                        1402.35,865.157 1402.9,865.057 1403.45,864.965
                        1404,864.88 1404.56,864.804 1405.12,864.735
                        1405.69,864.674 1406.26,864.622
                        1406.82,864.577 1407.4,864.54 1407.97,864.512
                        1408.54,864.492 1409.11,864.479
                        1409.69,864.475 1410.26,864.479
                        1410.84,864.492 1411.41,864.512 1411.98,864.54
                        1412.55,864.577 1413.12,864.622
                        1413.69,864.674 1414.25,864.735
                        1414.82,864.804 1415.37,864.88 1415.93,864.965
                        1416.48,865.057 1417.03,865.157
                        1417.57,865.265 1418.11,865.381
                        1418.64,865.504 1419.17,865.634
                        1419.69,865.772 1420.21,865.918
                        1420.72,866.071 1421.22,866.231
                        1421.72,866.397 1422.21,866.571
                        1422.69,866.752 1423.16,866.94 1423.63,867.134
                        1424.09,867.335 1424.53,867.542
                        1424.97,867.755 1425.4,867.975 1425.82,868.201
                        1426.24,868.432 1426.64,868.67 1427.03,868.913
                        1427.41,869.161 1427.78,869.415
                        1428.14,869.674 1428.48,869.937
                        1428.82,870.206 1429.15,870.48 1429.46,870.758
                        1429.76,871.04 1430.05,871.326 1430.33,871.617
                        1430.59,871.911 1430.84,872.209
                        1431.08,872.511 1431.31,872.815
                        1431.52,873.123 1431.72,873.434
                        1431.91,873.748 1432.08,874.064
                        1432.24,874.382 1432.39,874.703
                        1432.52,875.025 1432.64,875.35 1432.74,875.676
                        1432.84,876.003 1432.91,876.332
                        1432.98,876.661 1433.03,876.992
                        1433.06,877.322 1433.08,877.654
                        1433.09,877.985"/>
      <polyline fill="none"
                vector-effect="none"
                points="1464.74,885.946 1464.72,886.726 1464.67,887.506 1464.59,888.284 1464.47,889.062 1464.32,889.837 1464.14,890.61 1463.93,891.38 1463.68,892.147 1463.4,892.91 1463.09,893.669 1462.74,894.423 1462.37,895.172 1461.96,895.916 1461.52,896.654 1461.05,897.385 1460.55,898.109 1460.02,898.826 1459.45,899.535 1458.86,900.236 1458.24,900.929 1457.59,901.612 1456.91,902.286 1456.2,902.95 1455.46,903.604 1454.7,904.247 1453.91,904.879 1453.09,905.5 1452.24,906.109 1451.37,906.706 1450.48,907.29 1449.56,907.862 1448.62,908.42 1447.65,908.965 1446.66,909.496 1445.65,910.013 1444.61,910.515 1443.56,911.002 1442.48,911.475 1441.39,911.932 1440.27,912.373 1439.14,912.798 1437.99,913.208 1436.82,913.6 1435.64,913.976 1434.44,914.336 1433.23,914.678 1432,915.003 1430.76,915.31 1429.5,915.6 1428.23,915.871 1426.96,916.125 1425.67,916.361 1424.37,916.578 1423.06,916.777 1421.75,916.957 1420.43,917.119 1419.1,917.261 1417.77,917.385 1416.43,917.49 1415.08,917.576 1413.74,917.643 1412.39,917.691 1411.04,917.72 1409.69,917.729 1408.34,917.72 1406.99,917.691 1405.64,917.643 1404.29,917.576 1402.95,917.49 1401.61,917.385 1400.28,917.261 1398.95,917.119 1397.63,916.957 1396.31,916.777 1395.01,916.578 1393.71,916.361 1392.42,916.125 1391.14,915.871 1389.88,915.6 1388.62,915.31 1387.38,915.003 1386.15,914.678 1384.94,914.336 1383.74,913.976 1382.55,913.6 1381.39,913.208 1380.24,912.798 1379.1,912.373 1377.99,911.932 1376.9,911.475 1375.82,911.002 1374.77,910.515 1373.73,910.013 1372.72,909.496 1371.73,908.965 1370.76,908.42 1369.82,907.862 1368.9,907.29 1368,906.706 1367.13,906.109 1366.29,905.5 1365.47,904.879 1364.68,904.247 1363.92,903.604 1363.18,902.95 1362.47,902.286 1361.79,901.612 1361.14,900.929 1360.52,900.236 1359.92,899.535 1359.36,898.826 1358.83,898.109 1358.33,897.385 1357.86,896.654 1357.42,895.916 1357.01,895.172 1356.63,894.423 1356.29,893.669 1355.98,892.91 1355.7,892.147 1355.45,891.38 1355.23,890.61 1355.05,889.837 1354.9,889.062 1354.79,888.284 1354.71,887.506 1354.66,886.726 1354.64,885.946"/>
      <polyline fill="none"
                vector-effect="none"
                points="1464.74,877.985 1464.72,878.765 1464.67,879.545 1464.59,880.323 1464.47,881.101 1464.32,881.876 1464.14,882.649 1463.93,883.419 1463.68,884.186 1463.4,884.949 1463.09,885.708 1462.74,886.462 1462.37,887.212 1461.96,887.955 1461.52,888.693 1461.05,889.424 1460.55,890.148 1460.02,890.865 1459.45,891.574 1458.86,892.275 1458.24,892.968 1457.59,893.651 1456.91,894.325 1456.2,894.989 1455.46,895.643 1454.7,896.286 1453.91,896.919 1453.09,897.539 1452.24,898.148 1451.37,898.745 1450.48,899.33 1449.56,899.901 1448.62,900.459 1447.65,901.004 1446.66,901.535 1445.65,902.052 1444.61,902.554 1443.56,903.041 1442.48,903.514 1441.39,903.971 1440.27,904.412 1439.14,904.837 1437.99,905.247 1436.82,905.639 1435.64,906.016 1434.44,906.375 1433.23,906.717 1432,907.042 1430.76,907.349 1429.5,907.639 1428.23,907.911 1426.96,908.164 1425.67,908.4 1424.37,908.617 1423.06,908.816 1421.75,908.996 1420.43,909.158 1419.1,909.301 1417.77,909.425 1416.43,909.529 1415.08,909.615 1413.74,909.682 1412.39,909.73 1411.04,909.759 1409.69,909.769 1408.34,909.759 1406.99,909.73 1405.64,909.682 1404.29,909.615 1402.95,909.529 1401.61,909.425 1400.28,909.301 1398.95,909.158 1397.63,908.996 1396.31,908.816 1395.01,908.617 1393.71,908.4 1392.42,908.164 1391.14,907.911 1389.88,907.639 1388.62,907.349 1387.38,907.042 1386.15,906.717 1384.94,906.375 1383.74,906.016 1382.55,905.639 1381.39,905.247 1380.24,904.837 1379.1,904.412 1377.99,903.971 1376.9,903.514 1375.82,903.041 1374.77,902.554 1373.73,902.052 1372.72,901.535 1371.73,901.004 1370.76,900.459 1369.82,899.901 1368.9,899.33 1368,898.745 1367.13,898.148 1366.29,897.539 1365.47,896.919 1364.68,896.286 1363.92,895.643 1363.18,894.989 1362.47,894.325 1361.79,893.651 1361.14,892.968 1360.52,892.275 1359.92,891.574 1359.36,890.865 1358.83,890.148 1358.33,889.424 1357.86,888.693 1357.42,887.955 1357.01,887.212 1356.63,886.462 1356.29,885.708 1355.98,884.949 1355.7,884.186 1355.45,883.419 1355.23,882.649 1355.05,881.876 1354.9,881.101 1354.79,880.323 1354.71,879.545 1354.66,878.765 1354.64,877.985 1354.66,877.205 1354.71,876.426 1354.79,875.647 1354.9,874.87 1355.05,874.095 1355.23,873.322 1355.45,872.552 1355.7,871.785 1355.98,871.022 1356.29,870.263 1356.63,869.508 1357.01,868.759 1357.42,868.016 1357.86,867.278 1358.33,866.547 1358.83,865.822 1359.36,865.106 1359.92,864.396 1360.52,863.695 1361.14,863.003 1361.79,862.32 1362.47,861.646 1363.18,860.981 1363.92,860.328 1364.68,859.684 1365.47,859.052 1366.29,858.431 1367.13,857.822 1368,857.225 1368.9,856.641 1369.82,856.07 1370.76,855.511 1371.73,854.967 1372.72,854.436 1373.73,853.919 1374.77,853.417 1375.82,852.929 1376.9,852.457 1377.99,852 1379.1,851.559 1380.24,851.133 1381.39,850.724 1382.55,850.331 1383.74,849.955 1384.94,849.596 1386.15,849.254 1387.38,848.929 1388.62,848.622 1389.88,848.332 1391.14,848.06 1392.42,847.806 1393.71,847.571 1395.01,847.354 1396.31,847.155 1397.63,846.975 1398.95,846.813 1400.28,846.67 1401.61,846.546 1402.95,846.441 1404.29,846.355 1405.64,846.288 1406.99,846.241 1408.34,846.212 1409.69,846.202 1411.04,846.212 1412.39,846.241 1413.74,846.288 1415.08,846.355 1416.43,846.441 1417.77,846.546 1419.1,846.67 1420.43,846.813 1421.75,846.975 1423.06,847.155 1424.37,847.354 1425.67,847.571 1426.96,847.806 1428.23,848.06 1429.5,848.332 1430.76,848.622 1432,848.929 1433.23,849.254 1434.44,849.596 1435.64,849.955 1436.82,850.331 1437.99,850.724 1439.14,851.133 1440.27,851.559 1441.39,852 1442.48,852.457 1443.56,852.929 1444.61,853.417 1445.65,853.919 1446.66,854.436 1447.65,854.967 1448.62,855.511 1449.56,856.07 1450.48,856.641 1451.37,857.225 1452.24,857.822 1453.09,858.431 1453.91,859.052 1454.7,859.684 1455.46,860.328 1456.2,860.981 1456.91,861.646 1457.59,862.32 1458.24,863.003 1458.86,863.695 1459.45,864.396 1460.02,865.106 1460.55,865.822 1461.05,866.547 1461.52,867.278 1461.96,868.016 1462.37,868.759 1462.74,869.508 1463.09,870.263 1463.4,871.022 1463.68,871.785 1463.93,872.552 1464.14,873.322 1464.32,874.095 1464.47,874.87 1464.59,875.647 1464.67,876.426 1464.72,877.205 1464.74,877.985"/>
      <polyline fill="none"
                vector-effect="none"
                points="1395.69,1842.59 1396.94,1842.77 1398.2,1842.94 1399.46,1843.08 1400.72,1843.21 1401.99,1843.32 1403.27,1843.42 1404.55,1843.5 1405.83,1843.56 1407.12,1843.6 1408.4,1843.63 1409.69,1843.64"/>
      <polyline fill="none"
                vector-effect="none"
                points="1407.71,1835.66 1408.7,1835.67 1409.69,1835.68 "/>
      <polyline fill="none"
                vector-effect="none"
                points="1373.05,1868.77 1373.05,1855.66"/>
      <polyline fill="none"
                vector-effect="none"
                points="1399.87,1884.26 1399.87,1863.63"/>
      <polyline fill="none"
                vector-effect="none"
                points="1379.57,1851.9 1399.87,1863.63"/>
      <polyline fill="none"
                vector-effect="none"
                points="1399.87,1863.63 1409.69,1862.11"/>
      <polyline fill="none"
                vector-effect="none"
                points="1428.44,1544.51 1428.44,1478.36"/>
      <polyline fill="none"
                vector-effect="none"
                points="1390.94,1478.36 1390.94,1544.51"/>
      <polyline fill="none"
                vector-effect="none"
                points="1422.95,1470.71 1420.08,1469.05"/>
      <polyline fill="none"
                vector-effect="none"
                points="1399.3,1469.05 1396.43,1470.71"/>
      <polyline fill="none"
                vector-effect="none"
                points="1373.05,1868.77 1374.44,1870.03 1375.85,1871.25 1377.29,1872.44 1378.76,1873.6 1380.25,1874.73 1381.77,1875.83 1383.31,1876.89 1384.87,1877.92 1386.46,1878.91"/>
      <polyline fill="none"
                vector-effect="none"
                points="1399.87,1884.26 1401.5,1884.39 1403.14,1884.5 1404.77,1884.57 1406.41,1884.61 1408.04,1884.61 1409.68,1884.59"/>
      <polyline fill="none"
                vector-effect="none"
                points="1386.46,1878.91 1387.51,1879.5 1388.58,1880.07 1389.66,1880.61 1390.75,1881.12 1391.85,1881.61 1392.97,1882.07 1394.1,1882.5 1395.23,1882.91 1396.38,1883.29 1397.54,1883.64 1398.7,1883.96 1399.87,1884.26"/>
    </g>

    <g fill="#000000"
       fill-opacity="1"
       stroke="#000000"
       stroke-opacity="1"
       stroke-width="2"
       stroke-linecap="round"
       stroke-linejoin="bevel"
       transform="matrix(1,0,0,1,0,0)">
      <polyline fill="none"
                vector-effect="none"
                points="1393.25,1844 1393.5,1844.26 1393.77,1844.52
                        1394.04,1844.77 1394.33,1845.01
                        1394.63,1845.25 1394.95,1845.49
                        1395.27,1845.72 1395.6,1845.94 1395.95,1846.16
                        1396.3,1846.38 1396.67,1846.59 1397.04,1846.79
                        1397.43,1846.99 1397.82,1847.18
                        1398.22,1847.36 1398.63,1847.54
                        1399.05,1847.71 1399.48,1847.88
                        1399.92,1848.04 1400.36,1848.19
                        1400.81,1848.33 1401.26,1848.47 1401.73,1848.6
                        1402.19,1848.72 1402.67,1848.84
                        1403.15,1848.94 1403.63,1849.04
                        1404.12,1849.13 1404.61,1849.22 1405.11,1849.3
                        1405.61,1849.36 1406.11,1849.42
                        1406.62,1849.48 1407.13,1849.52
                        1407.64,1849.56 1408.15,1849.59
                        1408.66,1849.61 1409.17,1849.62
                        1409.69,1849.62"/>
    </g>

    <g fill="#000000"
       fill-opacity="1"
       stroke="#000000"
       stroke-opacity="1"
       stroke-width="5"
       stroke-linecap="round"
       stroke-linejoin="bevel"
       transform="matrix(1,0,0,1,0,0)">
      <polyline fill="none"
                vector-effect="none"
                points="1422.95,1470.71 1423.33,1470.94 1423.7,1471.17 1424.07,1471.41 1424.41,1471.66 1424.75,1471.91 1425.07,1472.17 1425.38,1472.44 1425.68,1472.71 1425.96,1472.98 1426.22,1473.26 1426.48,1473.54 1426.72,1473.83 1426.94,1474.12 1427.15,1474.42 1427.34,1474.72 1427.52,1475.02 1427.68,1475.32 1427.83,1475.63 1427.96,1475.94 1428.08,1476.25 1428.18,1476.56 1428.26,1476.88 1428.33,1477.2 1428.38,1477.51 1428.42,1477.83 1428.44,1478.15 1428.44,1478.47 1428.42,1478.79 1428.39,1479.11 1428.35,1479.42 1428.29,1479.74 1428.21,1480.06 1428.11,1480.37 1428,1480.68 1427.88,1480.99 1427.73,1481.3 1427.58,1481.61 1427.4,1481.91 1427.22,1482.21 1427.01,1482.51 1426.79,1482.8 1426.56,1483.09 1426.31,1483.37 1426.05,1483.65 1425.77,1483.93 1425.48,1484.2 1425.18,1484.47 1424.86,1484.73 1424.53,1484.98 1424.18,1485.23 1423.83,1485.47 1423.46,1485.71 1423.08,1485.94 1422.68,1486.17 1422.28,1486.38 1421.87,1486.59 1421.44,1486.8 1421.01,1486.99 1420.56,1487.18 1420.11,1487.36 1419.64,1487.54 1419.17,1487.7 1418.69,1487.86 1418.2,1488.01 1417.71,1488.15 1417.2,1488.28 1416.69,1488.4 1416.18,1488.52 1415.66,1488.63 1415.13,1488.72 1414.6,1488.81 1414.07,1488.89 1413.53,1488.96 1412.99,1489.02 1412.44,1489.07 1411.89,1489.11 1411.34,1489.15 1410.79,1489.17 1410.24,1489.18 1409.69,1489.19 1409.14,1489.18 1408.58,1489.17 1408.03,1489.15 1407.48,1489.11 1406.94,1489.07 1406.39,1489.02 1405.85,1488.96 1405.31,1488.89 1404.78,1488.81 1404.25,1488.72 1403.72,1488.63 1403.2,1488.52 1402.68,1488.4 1402.17,1488.28 1401.67,1488.15 1401.18,1488.01 1400.69,1487.86 1400.21,1487.7 1399.74,1487.54 1399.27,1487.36 1398.82,1487.18 1398.37,1486.99 1397.94,1486.8 1397.51,1486.59 1397.1,1486.38 1396.69,1486.17 1396.3,1485.94 1395.92,1485.71 1395.55,1485.47 1395.19,1485.23 1394.85,1484.98 1394.52,1484.73 1394.2,1484.47 1393.9,1484.2 1393.61,1483.93 1393.33,1483.65 1393.07,1483.37 1392.82,1483.09 1392.58,1482.8 1392.37,1482.51 1392.16,1482.21 1391.97,1481.91 1391.8,1481.61 1391.64,1481.3 1391.5,1480.99 1391.37,1480.68 1391.26,1480.37 1391.17,1480.06 1391.09,1479.74 1391.03,1479.42 1390.98,1479.11 1390.95,1478.79 1390.94,1478.47 1390.94,1478.15 1390.96,1477.83 1391,1477.51 1391.05,1477.2 1391.12,1476.88 1391.2,1476.56 1391.3,1476.25 1391.41,1475.94 1391.55,1475.63 1391.69,1475.32 1391.86,1475.02 1392.03,1474.72 1392.23,1474.42 1392.44,1474.12 1392.66,1473.83 1392.9,1473.54 1393.15,1473.26 1393.42,1472.98 1393.7,1472.71 1394,1472.44 1394.31,1472.17 1394.63,1471.91 1394.96,1471.66 1395.31,1471.41 1395.67,1471.17 1396.05,1470.94 1396.43,1470.71"/>
    </g>

    <g fill="#000000"
       fill-opacity="1"
       stroke="#000000"
       stroke-opacity="1"
       stroke-width="2"
       stroke-linecap="round"
       stroke-linejoin="bevel"
       transform="matrix(1,0,0,1,0,0)">
      <polyline fill="none"
                vector-effect="none"
                points="1409.69,1855.9 1409.12,1855.89 1408.56,1855.88
                        1407.99,1855.86 1407.43,1855.83 1406.86,1855.8
                        1406.3,1855.75 1405.74,1855.7 1405.19,1855.64
                        1404.63,1855.57 1404.08,1855.5 1403.53,1855.42
                        1402.99,1855.33 1402.45,1855.23
                        1401.91,1855.12 1401.38,1855.01
                        1400.85,1854.89 1400.33,1854.76
                        1399.82,1854.63 1399.31,1854.48 1398.8,1854.33
                        1398.31,1854.18 1397.82,1854.01
                        1397.33,1853.84 1396.86,1853.67
                        1396.39,1853.48 1395.93,1853.29
                        1395.47,1853.09 1395.03,1852.89 1394.6,1852.68
                        1394.17,1852.47 1393.75,1852.25
                        1393.34,1852.02 1392.95,1851.79
                        1392.56,1851.55 1392.18,1851.3 1391.81,1851.06
                        1391.46,1850.8 1391.11,1850.54 1390.77,1850.28
                        1390.45,1850.01 1390.14,1849.74
                        1389.84,1849.46 1389.55,1849.18
                        1389.27,1848.89 1389.01,1848.6 1388.75,1848.31
                        1388.51,1848.02 1388.29,1847.72
                        1388.07,1847.41 1387.87,1847.11"/>
    </g>

    <g fill="#000000"
       fill-opacity="1"
       stroke="#000000"
       stroke-opacity="1"
       stroke-width="5"
       stroke-linecap="round"
       stroke-linejoin="bevel"
       transform="matrix(1,0,0,1,0,0)">
      <polyline fill="none"
                vector-effect="none"
                points="1395,1475.05 1395,1475.3 1395.02,1475.56
                        1395.06,1475.81 1395.1,1476.07 1395.16,1476.32
                        1395.24,1476.57 1395.32,1476.82
                        1395.42,1477.07 1395.53,1477.32
                        1395.66,1477.56 1395.79,1477.8 1395.94,1478.04
                        1396.11,1478.28 1396.28,1478.51
                        1396.47,1478.74 1396.67,1478.97 1396.88,1479.2
                        1397.1,1479.42 1397.33,1479.63 1397.57,1479.85
                        1397.83,1480.05 1398.1,1480.26 1398.37,1480.46
                        1398.66,1480.65 1398.96,1480.84
                        1399.26,1481.02 1399.58,1481.2 1399.9,1481.37
                        1400.24,1481.54 1400.58,1481.7 1400.93,1481.86
                        1401.29,1482.01 1401.65,1482.15
                        1402.03,1482.29 1402.41,1482.41
                        1402.79,1482.54 1403.19,1482.65
                        1403.59,1482.76 1403.99,1482.87 1404.4,1482.96
                        1404.81,1483.05 1405.23,1483.13 1405.66,1483.2
                        1406.08,1483.27 1406.51,1483.33
                        1406.94,1483.38 1407.38,1483.42
                        1407.82,1483.46 1408.26,1483.49 1408.7,1483.51
                        1409.14,1483.52 1409.58,1483.53
                        1410.02,1483.53 1410.46,1483.52 1410.9,1483.5
                        1411.34,1483.48 1411.78,1483.44 1412.22,1483.4
                        1412.65,1483.36 1413.08,1483.3 1413.51,1483.24
                        1413.93,1483.17 1414.35,1483.09
                        1414.77,1483.01 1415.18,1482.91
                        1415.59,1482.82 1415.99,1482.71 1416.39,1482.6
                        1416.78,1482.48 1417.16,1482.35
                        1417.54,1482.22 1417.91,1482.08
                        1418.27,1481.93 1418.62,1481.78
                        1418.97,1481.62 1419.31,1481.46
                        1419.64,1481.29 1419.96,1481.11
                        1420.27,1480.93 1420.57,1480.75
                        1420.86,1480.55 1421.14,1480.36
                        1421.42,1480.16 1421.68,1479.95
                        1421.93,1479.74 1422.17,1479.53
                        1422.39,1479.31 1422.61,1479.09
                        1422.81,1478.86 1423.01,1478.63 1423.19,1478.4
                        1423.35,1478.16 1423.51,1477.92
                        1423.65,1477.68 1423.78,1477.44 1423.9,1477.19
                        1424.01,1476.94 1424.1,1476.7 1424.18,1476.44
                        1424.25,1476.19 1424.3,1475.94 1424.34,1475.69
                        1424.36,1475.43 1424.38,1475.18
                        1424.38,1474.92 1424.36,1474.67
                        1424.34,1474.41 1424.3,1474.16 1424.25,1473.9
                        1424.18,1473.65 1424.1,1473.4 1424.01,1473.15
                        1423.9,1472.9 1423.78,1472.66 1423.65,1472.42
                        1423.51,1472.17 1423.35,1471.94 1423.19,1471.7
                        1423.01,1471.47 1422.81,1471.24
                        1422.61,1471.01 1422.39,1470.79
                        1422.17,1470.57 1421.93,1470.36
                        1421.68,1470.15 1421.42,1469.94
                        1421.14,1469.74 1420.86,1469.54
                        1420.57,1469.35 1420.27,1469.16
                        1419.96,1468.98 1419.64,1468.81
                        1419.31,1468.64 1418.97,1468.47
                        1418.62,1468.32 1418.27,1468.16
                        1417.91,1468.02 1417.54,1467.88
                        1417.16,1467.75 1416.78,1467.62 1416.39,1467.5
                        1415.99,1467.39 1415.59,1467.28
                        1415.18,1467.18 1414.77,1467.09
                        1414.35,1467.01 1413.93,1466.93
                        1413.51,1466.86 1413.08,1466.8 1412.65,1466.74
                        1412.22,1466.69 1411.78,1466.65
                        1411.34,1466.62 1410.9,1466.6 1410.46,1466.58
                        1410.02,1466.57 1409.58,1466.57
                        1409.14,1466.57 1408.7,1466.59 1408.26,1466.61
                        1407.82,1466.64 1407.38,1466.67
                        1406.94,1466.72 1406.51,1466.77
                        1406.08,1466.83 1405.66,1466.89
                        1405.23,1466.97 1404.81,1467.05 1404.4,1467.14
                        1403.99,1467.23 1403.59,1467.33
                        1403.19,1467.44 1402.79,1467.56
                        1402.41,1467.68 1402.03,1467.81
                        1401.65,1467.95 1401.29,1468.09
                        1400.93,1468.24 1400.58,1468.39
                        1400.24,1468.56 1399.9,1468.72 1399.58,1468.9
                        1399.26,1469.07 1398.96,1469.26
                        1398.66,1469.45 1398.37,1469.64 1398.1,1469.84
                        1397.83,1470.04 1397.57,1470.25
                        1397.33,1470.46 1397.1,1470.68 1396.88,1470.9
                        1396.67,1471.12 1396.47,1471.35
                        1396.28,1471.58 1396.11,1471.82
                        1395.94,1472.05 1395.79,1472.29
                        1395.66,1472.54 1395.53,1472.78
                        1395.42,1473.03 1395.32,1473.28
                        1395.24,1473.53 1395.16,1473.78 1395.1,1474.03
                        1395.06,1474.28 1395.02,1474.54 1395,1474.79
                        1395,1475.05"/>
      <polyline fill="none"
                vector-effect="none"
                points="1409.69,1265 1405.15,1268.55"/>
      <polyline fill="none"
                vector-effect="none"
                points="1091.49,866.963 1054.09,888.558"/>
      <polyline fill="none"
                vector-effect="none"
                points="1409.69,1050.67 1372.28,1072.27"/>
      <polyline fill="none"
                vector-effect="none"
                points="1409.69,1050.67 1091.49,866.963"/>
      <polyline fill="none"
                vector-effect="none"
                points="1086.96,1084.83 1054.09,888.558"/>
      <polyline fill="none"
                vector-effect="none"
                points="1405.15,1268.55 1086.96,1084.83"/>
      <polyline fill="none"
                vector-effect="none"
                points="1409.69,1265 1409.69,1050.67"/>
      <polyline fill="none"
                vector-effect="none"
                points="1405.15,1268.55 1372.28,1072.27"/>
      <polyline fill="none"
                vector-effect="none"
                points="1372.28,1072.27 1054.09,888.558"/>
      <polyline fill="none"
                vector-effect="none"
                points="1409.69,846.202 1409.69,683.251"/>
      <polyline fill="none"
                vector-effect="none"
                points="1447.09,661.655 1765.29,845.367"/>
      <polyline fill="none"
                vector-effect="none"
                points="1409.69,683.251 1447.09,661.655"/>
      <polyline fill="none"
                vector-effect="none"
                points="1409.69,683.251 1727.89,866.963"/>
      <polyline fill="none"
                vector-effect="none"
                points="1737.35,1044.5 1765.29,845.367"/>
      <polyline fill="none"
                vector-effect="none"
                points="1727.89,866.963 1765.29,845.367"/>
      <polyline fill="none"
                vector-effect="none"
                points="1727.89,1039.04 1727.89,866.963"/>
      <polyline fill="none"
                vector-effect="none"
                points="1409.69,1792.26 1414.22,1793.95"/>
      <polyline fill="none"
                vector-effect="none"
                points="1409.69,2006.59 1447.09,2028.18"/>
      <polyline fill="none"
                vector-effect="none"
                points="1739.11,1657.89 1765.29,1844.47"/>
      <polyline fill="none"
                vector-effect="none"
                points="1409.69,1792.26 1690.76,1629.98"/>
      <polyline fill="none"
                vector-effect="none"
                points="1414.22,1793.95 1694.5,1632.14"/>
      <polyline fill="none"
                vector-effect="none"
                points="1409.69,1792.26 1409.69,2006.59"/>
      <polyline fill="none"
                vector-effect="none"
                points="1414.22,1793.95 1447.09,2028.18"/>
      <polyline fill="none"
                vector-effect="none"
                points="1447.09,2028.18 1765.29,1844.47"/>
    </g>

    <g fill="#000000"
       fill-opacity="1"
       stroke="#000000"
       stroke-opacity="1"
       stroke-width="2"
       stroke-linecap="round"
       stroke-linejoin="bevel"
       transform="matrix(1,0,0,1,0,0)">
      <polyline fill="none"
                vector-effect="none"
                points="1231.89,1367.65 1231.89,1398.27"/>
      <polyline fill="none"
                vector-effect="none"
                points="1231.89,1404.39 1231.89,1410.52"/>
      <polyline fill="none"
                vector-effect="none"
                points="1231.89,1416.64 1231.89,1422.77"/>
      <polyline fill="none"
                vector-effect="none"
                points="1231.89,1428.89 1231.89,1459.51"/>
      <polyline fill="none"
                vector-effect="none"
                points="1587.49,1572.95 1587.49,1611.46"/>
      <polyline fill="none"
                vector-effect="none"
                points="1587.49,1617.58 1587.49,1623.71"/>
      <polyline fill="none"
                vector-effect="none"
                points="1587.49,1629.83 1587.49,1635.95"/>
      <polyline fill="none"
                vector-effect="none"
                points="1587.49,1642.08 1587.49,1672.7"/>
      <polyline fill="none"
                vector-effect="none"
                points="1587.49,1678.82 1587.49,1684.94"/>
      <polyline fill="none"
                vector-effect="none"
                points="1587.49,1691.07 1587.49,1697.19"/>
      <polyline fill="none"
                vector-effect="none"
                points="1587.49,1703.31 1587.49,1733.93"/>
      <polyline fill="none"
                vector-effect="none"
                points="1587.49,1740.06 1587.49,1746.18"/>
      <polyline fill="none"
                vector-effect="none"
                points="1587.49,1752.3 1587.49,1758.43"/>
      <polyline fill="none"
                vector-effect="none"
                points="1587.49,1764.55 1587.49,1803.06"/>
      <polyline fill="none"
                vector-effect="none"
                points="1409.69,1050.56 1409.69,1030.07"/>
      <polyline fill="none"
                vector-effect="none"
                points="1409.69,1023.95 1409.69,1017.82"/>
      <polyline fill="none"
                vector-effect="none"
                points="1409.69,1011.7 1409.69,1005.58"/>
      <polyline fill="none"
                vector-effect="none"
                points="1409.69,999.453 1409.69,968.834"/>
      <polyline fill="none"
                vector-effect="none"
                points="1409.69,962.71 1409.69,956.587"/>
      <polyline fill="none"
                vector-effect="none"
                points="1409.69,950.463 1409.69,944.339"/>
      <polyline fill="none"
                vector-effect="none"
                points="1409.69,938.215 1409.69,917.729"/>
      <polyline fill="none"
                vector-effect="none"
                points="1409.69,891.495 1409.69,881.966"/>
      <polyline fill="none"
                vector-effect="none"
                points="1409.69,1475.05 1409.69,1419.26"/>
      <polyline fill="none"
                vector-effect="none"
                points="1409.69,1393.03 1409.69,1380.68"/>
      <polyline fill="none"
                vector-effect="none"
                points="1409.69,1354.45 1409.69,1342.1"/>
      <polyline fill="none"
                vector-effect="none"
                points="1231.89,1322.19 1231.89,1283.69"/>
      <polyline fill="none"
                vector-effect="none"
                points="1231.89,1277.56 1231.89,1271.44"/>
      <polyline fill="none"
                vector-effect="none"
                points="1231.89,1265.32 1231.89,1259.19"/>
      <polyline fill="none"
                vector-effect="none"
                points="1231.89,1253.07 1231.89,1222.45"/>
      <polyline fill="none"
                vector-effect="none"
                points="1231.89,1216.33 1231.89,1210.2"/>
      <polyline fill="none"
                vector-effect="none"
                points="1231.89,1204.08 1231.89,1197.96"/>
      <polyline fill="none"
                vector-effect="none"
                points="1231.89,1191.83 1231.89,1161.21"/>
      <polyline fill="none"
                vector-effect="none"
                points="1231.89,1155.09 1231.89,1148.97"/>
      <polyline fill="none"
                vector-effect="none"
                points="1231.89,1142.84 1231.89,1136.72"/>
      <polyline fill="none"
                vector-effect="none"
                points="1231.89,1130.59 1231.89,1092.09"/>
      <polyline fill="none"
                vector-effect="none"
                points="1409.69,1342.1 1409.69,1354.45"/>
      <polyline fill="none"
                vector-effect="none"
                points="1409.69,1380.68 1409.69,1393.03"/>
      <polyline fill="none"
                vector-effect="none"
                points="1409.69,1419.26 1409.69,1475.05"/>
      <polyline fill="none"
                vector-effect="none"
                points="1409.69,1471.07 1409.69,1475.05"/>
      <polyline fill="none"
                vector-effect="none"
                points="1409.69,1352.88 1409.69,1354.45"/>
      <polyline fill="none"
                vector-effect="none"
                points="1409.69,1380.68 1409.69,1383.5"/>
    </g>

  </g>
</svg>

