<?xml version="1.0" encoding="UTF-8" standalone="no"?>
<svg width="279.4mm" height="215.9mm"
 viewBox="0 0 3300 2550"
 xmlns="http://www.w3.org/2000/svg" xmlns:xlink="http://www.w3.org/1999/xlink"  version="1.2" baseProfile="tiny">
<defs>
</defs>
<g fill="none" stroke="black" stroke-width="1" fill-rule="evenodd" stroke-linecap="square" stroke-linejoin="bevel" >

<g fill="#ffffff" fill-opacity="1" stroke="none" transform="matrix(1,0,0,1,0,0)"
font-family="Arial" font-size="12" font-weight="400" font-style="normal" 
>
<rect x="0" y="0" width="3300" height="2550"/>
</g>

<g fill="none" stroke="#000000" stroke-opacity="1" stroke-width="1" stroke-linecap="square" stroke-linejoin="bevel" transform="matrix(1,0,0,1,0,0)"
font-family="Arial" font-size="12" font-weight="400" font-style="normal" 
>
</g>

<g fill="#000000" fill-opacity="1" stroke="#000000" stroke-opacity="1" stroke-width="1" stroke-linecap="butt" stroke-linejoin="miter" stroke-miterlimit="2" transform="matrix(1,0,0,1,0,0)"
font-family="Arial" font-size="12" font-weight="400" font-style="normal" 
>
</g>

<g fill="#000000" fill-opacity="1" stroke="#000000" stroke-opacity="1" stroke-width="5" stroke-linecap="round" stroke-linejoin="bevel" transform="matrix(1,0,0,1,0,0)"
font-family="Arial" font-size="12" font-weight="400" font-style="normal" 
>
<polyline fill="none" vector-effect="none" points="1032,700.76 1032,600.76 " />
<polyline fill="none" vector-effect="none" points="1032,700.76 882,700.76 " />
<polyline fill="none" vector-effect="none" points="882,700.76 882,600.76 " />
<polyline fill="none" vector-effect="none" points="1032,600.76 882,600.76 " />
<polyline fill="none" vector-effect="none" points="2593,700.76 2593,600.76 " />
<polyline fill="none" vector-effect="none" points="2593,700.76 2093,700.76 " />
<polyline fill="none" vector-effect="none" points="2093,700.76 2093,600.76 " />
<polyline fill="none" vector-effect="none" points="2308.3,600.76 2093,600.76 " />
<polyline fill="none" vector-effect="none" points="2308.3,600.76 2318,655.76 " />
<polyline fill="none" vector-effect="none" points="2318,655.76 2468,655.76 " />
<polyline fill="none" vector-effect="none" points="2477.7,600.76 2468,655.76 " />
<polyline fill="none" vector-effect="none" points="2593,600.76 2477.7,600.76 " />
<polyline fill="none" vector-effect="none" points="1032,1343.24 882,1343.24 " />
<polyline fill="none" vector-effect="none" points="1032,1558.54 1032,1343.24 " />
<polyline fill="none" vector-effect="none" points="882,1558.54 1032,1558.54 " />
<polyline fill="none" vector-effect="none" points="882,1558.54 882,1343.24 " />
<polyline fill="none" vector-effect="none" points="1032,1568.24 1032,1558.54 " />
<polyline fill="none" vector-effect="none" points="882,1568.24 1032,1568.24 " />
<polyline fill="none" vector-effect="none" points="882,1558.54 882,1568.24 " />
<polyline fill="none" vector-effect="none" points="1032,1843.24 1032,1727.94 " />
<polyline fill="none" vector-effect="none" points="1032,1843.24 882,1843.24 " />
<polyline fill="none" vector-effect="none" points="882,1727.94 1032,1727.94 " />
<polyline fill="none" vector-effect="none" points="882,1843.24 882,1727.94 " />
<polyline fill="none" vector-effect="none" points="882,1718.24 1032,1718.24 " />
<polyline fill="none" vector-effect="none" points="1032,1718.24 1032,1727.94 " />
<polyline fill="none" vector-effect="none" points="882,1727.94 882,1718.24 " />
<polyline fill="none" vector-effect="none" points="963.65,1643.24 963.643,1642.94 963.624,1642.65 963.591,1642.35 963.545,1642.06 963.486,1641.77 963.414,1641.48 963.329,1641.2 963.232,1640.92 963.122,1640.64 963.001,1640.37 962.867,1640.11 962.722,1639.85 962.565,1639.6 962.397,1639.36 962.219,1639.12 962.03,1638.89 961.831,1638.67 961.623,1638.46 961.405,1638.26 961.179,1638.07 960.945,1637.89 960.702,1637.72 960.452,1637.56 960.196,1637.41 959.933,1637.27 959.664,1637.15 959.39,1637.03 959.111,1636.93 958.828,1636.85 958.542,1636.77 958.252,1636.71 957.96,1636.66 957.666,1636.62 957.37,1636.6 957.074,1636.59 956.778,1636.59 956.482,1636.61 956.187,1636.64 955.894,1636.68 955.603,1636.74 955.315,1636.81 955.03,1636.89 954.749,1636.98 954.472,1637.09 954.201,1637.21 953.935,1637.34 953.675,1637.48 953.422,1637.63 953.176,1637.8 952.937,1637.98 952.707,1638.16 952.485,1638.36 952.272,1638.56 952.068,1638.78 951.874,1639 951.691,1639.24 951.517,1639.48 951.355,1639.72 951.204,1639.98 951.065,1640.24 950.937,1640.51 950.821,1640.78 950.718,1641.06 950.627,1641.34 950.549,1641.63 950.483,1641.92 950.431,1642.21 950.391,1642.5 950.365,1642.8 950.352,1643.09 950.352,1643.39 950.365,1643.68 950.391,1643.98 950.431,1644.27 950.483,1644.56 950.549,1644.85 950.627,1645.14 950.718,1645.42 950.821,1645.7 950.937,1645.97 951.065,1646.24 951.204,1646.5 951.355,1646.76 951.517,1647 951.691,1647.24 951.874,1647.48 952.068,1647.7 952.272,1647.92 952.485,1648.12 952.707,1648.32 952.937,1648.5 953.176,1648.68 953.422,1648.85 953.675,1649 953.935,1649.14 954.201,1649.27 954.472,1649.39 954.749,1649.5 955.03,1649.59 955.315,1649.67 955.603,1649.74 955.894,1649.8 956.187,1649.84 956.482,1649.87 956.778,1649.89 957.074,1649.89 957.37,1649.88 957.666,1649.86 957.96,1649.82 958.252,1649.77 958.542,1649.71 958.828,1649.63 959.111,1649.55 959.39,1649.45 959.664,1649.33 959.933,1649.21 960.196,1649.07 960.452,1648.92 960.702,1648.76 960.945,1648.59 961.179,1648.41 961.405,1648.22 961.623,1648.02 961.831,1647.81 962.03,1647.59 962.219,1647.36 962.397,1647.12 962.565,1646.88 962.722,1646.63 962.867,1646.37 963.001,1646.11 963.122,1645.84 963.232,1645.56 963.329,1645.28 963.414,1645 963.486,1644.71 963.545,1644.42 963.591,1644.13 963.624,1643.83 963.643,1643.54 963.65,1643.24 " />
<polyline fill="none" vector-effect="none" points="1032,1718.24 1032,1568.24 " />
<polyline fill="none" vector-effect="none" points="882,1568.24 882,1718.24 " />
<polyline fill="none" vector-effect="none" points="2371.5,1507.63 2219.26,1419.73 " />
<polyline fill="none" vector-effect="none" points="2219.26,1419.73 2113.19,1480.97 " />
<polyline fill="none" vector-effect="none" points="2272.29,1617.73 2378.36,1678.97 " />
<polyline fill="none" vector-effect="none" points="2265.43,1568.87 2113.19,1480.97 " />
<polyline fill="none" vector-effect="none" points="2466.74,1766.75 2113.19,1562.62 " />
<polyline fill="none" vector-effect="none" points="2452.39,1599.24 2378.36,1556.5 " />
<polyline fill="none" vector-effect="none" points="2265.43,1568.87 2272.29,1617.73 " />
<polyline fill="none" vector-effect="none" points="2466.74,1766.75 2466.74,1685.1 " />
<polyline fill="none" vector-effect="none" points="2113.19,1562.62 2113.19,1480.97 " />
<polyline fill="none" vector-effect="none" points="2385.21,1638.02 2491.28,1576.79 " />
<polyline fill="none" vector-effect="none" points="2466.74,1685.1 2385.21,1638.02 " />
<polyline fill="none" vector-effect="none" points="2572.81,1705.51 2572.81,1623.86 " />
<polyline fill="none" vector-effect="none" points="2378.36,1556.5 2371.5,1507.63 " />
<polyline fill="none" vector-effect="none" points="2572.81,1623.86 2491.28,1576.79 " />
<polyline fill="none" vector-effect="none" points="2572.81,1623.86 2466.74,1685.1 " />
<polyline fill="none" vector-effect="none" points="2572.81,1705.51 2466.74,1766.75 " />
<polyline fill="none" vector-effect="none" points="2385.21,1638.02 2378.36,1678.97 " />
<polyline fill="none" vector-effect="none" points="2265.43,1568.87 2371.5,1507.63 " />
<polyline fill="none" vector-effect="none" points="2272.29,1617.73 2378.36,1556.5 " />
<polyline fill="none" vector-effect="none" points="2371.71,1617.73 2371.71,1617.91 2371.73,1618.08 2371.76,1618.25 2371.81,1618.42 2371.87,1618.58 2371.94,1618.75 2372.03,1618.91 2372.12,1619.07 2372.23,1619.23 2372.35,1619.39 2372.49,1619.54 2372.63,1619.69 2372.79,1619.84 2372.96,1619.98 2373.14,1620.11 2373.33,1620.25 2373.52,1620.37 2373.73,1620.49 2373.95,1620.61 2374.18,1620.72 2374.41,1620.83 2374.65,1620.92 2374.9,1621.02 2375.16,1621.1 2375.42,1621.18 2375.69,1621.25 2375.97,1621.32 2376.24,1621.38 2376.53,1621.43 2376.81,1621.47 2377.1,1621.51 2377.4,1621.53 2377.69,1621.55 2377.99,1621.57 2378.28,1621.57 2378.58,1621.57 2378.87,1621.56 2379.17,1621.55 2379.46,1621.52 2379.75,1621.49 2380.04,1621.45 2380.33,1621.4 2380.61,1621.35 2380.88,1621.29 2381.15,1621.22 2381.42,1621.14 2381.68,1621.06 2381.93,1620.97 2382.18,1620.88 2382.42,1620.77 2382.65,1620.67 2382.87,1620.55 2383.08,1620.43 2383.29,1620.31 2383.48,1620.18 2383.66,1620.05 2383.84,1619.91 2384,1619.76 2384.15,1619.62 2384.29,1619.47 2384.42,1619.31 2384.53,1619.15 2384.64,1618.99 2384.73,1618.83 2384.81,1618.67 2384.87,1618.5 2384.92,1618.33 2384.96,1618.16 2384.99,1617.99 2385,1617.82 2385,1617.65 2384.99,1617.48 2384.96,1617.31 2384.92,1617.14 2384.87,1616.97 2384.81,1616.8 2384.73,1616.64 2384.64,1616.48 2384.53,1616.32 2384.42,1616.16 2384.29,1616 2384.15,1615.85 2384,1615.71 2383.84,1615.56 2383.66,1615.42 2383.48,1615.29 2383.29,1615.16 2383.08,1615.04 2382.87,1614.92 2382.65,1614.8 2382.42,1614.7 2382.18,1614.59 2381.93,1614.5 2381.68,1614.41 2381.42,1614.33 2381.15,1614.25 2380.88,1614.18 2380.61,1614.12 2380.33,1614.07 2380.04,1614.02 2379.75,1613.98 2379.46,1613.95 2379.17,1613.92 2378.87,1613.91 2378.58,1613.9 2378.28,1613.9 2377.99,1613.9 2377.69,1613.91 2377.4,1613.94 2377.1,1613.96 2376.81,1614 2376.53,1614.04 2376.24,1614.09 2375.97,1614.15 2375.69,1614.22 2375.42,1614.29 2375.16,1614.37 2374.9,1614.45 2374.65,1614.55 2374.41,1614.64 2374.18,1614.75 2373.95,1614.86 2373.73,1614.98 2373.52,1615.1 2373.33,1615.22 2373.14,1615.36 2372.96,1615.49 2372.79,1615.63 2372.63,1615.78 2372.49,1615.93 2372.35,1616.08 2372.23,1616.24 2372.12,1616.39 2372.03,1616.56 2371.94,1616.72 2371.87,1616.89 2371.81,1617.05 2371.76,1617.22 2371.73,1617.39 2371.71,1617.56 2371.71,1617.73 " />
</g>

<g fill="none" stroke="#000000" stroke-opacity="1" stroke-width="1" stroke-linecap="square" stroke-linejoin="bevel" transform="matrix(1,0,0,1,0,0)"
font-family="Arial" font-size="12" font-weight="400" font-style="normal" 
>
</g>
</g>
</svg>
