<?xml version="1.0" encoding="UTF-8" standalone="no"?>
<svg width="279.4mm"
     height="215.9mm"
     viewBox="0 0 3300 2550"
     xmlns="http://www.w3.org/2000/svg"
     xmlns:xlink="http://www.w3.org/1999/xlink"
     version="1.2"
     baseProfile="tiny">
  <defs>
  </defs>
  <g fill="none"
     stroke="black"
     stroke-width="1"
     fill-rule="evenodd"
     stroke-linecap="square"
     stroke-linejoin="bevel">

    <g fill="#ffffff"
       fill-opacity="1"
       stroke="none"
       transform="matrix(1,0,0,1,0,0)"
       font-family="Arial"
       font-size="12"
       font-weight="400"
       font-style="normal">
      <rect x="0"
            y="0"
            width="3300"
            height="2550"/>
    </g>

    <g fill="none"
       stroke="#000000"
       stroke-opacity="1"
       stroke-width="1"
       stroke-linecap="square"
       stroke-linejoin="bevel"
       transform="matrix(1,0,0,1,0,0)"
       font-family="Arial"
       font-size="12"
       font-weight="400"
       font-style="normal">
    </g>

    <g fill="#000000"
       fill-opacity="1"
       stroke="#000000"
       stroke-opacity="1"
       stroke-width="1"
       stroke-linecap="butt"
       stroke-linejoin="miter"
       stroke-miterlimit="2"
       transform="matrix(1,0,0,1,0,0)"
       font-family="Arial"
       font-size="12"
       font-weight="400"
       font-style="normal">
    </g>

    <g fill="#000000"
       fill-opacity="1"
       stroke="#000000"
       stroke-opacity="1"
       stroke-width="5"
       stroke-linecap="round"
       stroke-linejoin="bevel"
       transform="matrix(1,0,0,1,0,0)"
       font-family="Arial"
       font-size="12"
       font-weight="400"
       font-style="normal">
      <polyline fill="none"
                vector-effect="none"
                points="1107,750.76 1107,550.76"/>
      <polyline fill="none"
                vector-effect="none"
                points="1107,750.76 807,750.76"/>
      <polyline fill="none"
                vector-effect="none"
                points="807,750.76 807,550.76 "/>
      <polyline fill="none"
                vector-effect="none"
                points="1107,550.76 807,550.76"/>
      <polyline fill="none"
                vector-effect="none"
                points="2843,750.76 2843,550.76"/>
      <polyline fill="none"
                vector-effect="none"
                points="2843,750.76 1843,750.76"/>
      <polyline fill="none"
                vector-effect="none"
                points="1843,750.76 1843,550.76"/>
      <polyline fill="none"
                vector-effect="none"
                points="2273.6,550.76 1843,550.76"/>
      <polyline fill="none"
                vector-effect="none"
                points="2273.6,550.76 2293,660.76"/>
      <polyline fill="none"
                vector-effect="none"
                points="2293,660.76 2593,660.76"/>
      <polyline fill="none"
                vector-effect="none"
                points="2612.4,550.76 2593,660.76"/>
      <polyline fill="none"
                vector-effect="none"
                points="2843,550.76 2612.4,550.76"/>
      <polyline fill="none"
                vector-effect="none"
                points="1107,1093.24 807,1093.24"/>
      <polyline fill="none"
                vector-effect="none"
                points="1107,1523.84 1107,1093.24"/>
      <polyline fill="none"
                vector-effect="none"
                points="807,1523.84 1107,1523.84"/>
      <polyline fill="none"
                vector-effect="none"
                points="807,1523.84 807,1093.24"/>
      <polyline fill="none"
                vector-effect="none"
                points="1107,1543.24 1107,1523.84"/>
      <polyline fill="none"
                vector-effect="none"
                points="807,1543.24 1107,1543.24"/>
      <polyline fill="none"
                vector-effect="none"
                points="807,1523.84 807,1543.24"/>
      <polyline fill="none"
                vector-effect="none"
                points="1107,2093.24 1107,1862.64"/>
      <polyline fill="none"
                vector-effect="none"
                points="1107,2093.24 807,2093.24"/>
      <polyline fill="none"
                vector-effect="none"
                points="807,1862.64 1107,1862.64"/>
      <polyline fill="none"
                vector-effect="none"
                points="807,2093.24 807,1862.64"/>
      <polyline fill="none"
                vector-effect="none"
                points="807,1843.24 1107,1843.24"/>
      <polyline fill="none"
                vector-effect="none"
                points="1107,1843.24 1107,1862.64"/>
      <polyline fill="none"
                vector-effect="none"
                points="807,1862.64 807,1843.24"/>
      <polyline fill="none"
                vector-effect="none"
                points="970.3,1693.24 970.293,1692.82 970.273,1692.4 970.24,1691.98 970.194,1691.56 970.135,1691.15 970.062,1690.74 969.976,1690.32 969.878,1689.92 969.767,1689.51 969.643,1689.11 969.506,1688.71 969.357,1688.32 969.195,1687.93 969.022,1687.55 968.836,1687.17 968.639,1686.8 968.43,1686.44 968.209,1686.08 967.978,1685.73 967.735,1685.39 967.482,1685.05 967.218,1684.73 966.944,1684.41 966.661,1684.1 966.367,1683.8 966.065,1683.51 965.753,1683.23 965.432,1682.95 965.103,1682.69 964.766,1682.44 964.422,1682.2 964.07,1681.97 963.711,1681.76 963.345,1681.55 962.973,1681.36 962.594,1681.17 962.211,1681 961.822,1680.84 961.428,1680.7 961.03,1680.57 960.628,1680.44 960.222,1680.34 959.813,1680.24 959.401,1680.16 958.987,1680.09 958.571,1680.03 958.153,1679.99 957.735,1679.96 957.315,1679.94 956.895,1679.94 956.475,1679.95 956.056,1679.97 955.638,1680.01 955.221,1680.06 954.805,1680.12 954.392,1680.2 953.982,1680.29 953.575,1680.39 953.171,1680.5 952.77,1680.63 952.374,1680.77 951.983,1680.92 951.597,1681.09 951.216,1681.26 950.841,1681.45 950.472,1681.65 950.109,1681.86 949.753,1682.09 949.405,1682.32 949.064,1682.57 948.731,1682.82 948.406,1683.09 948.09,1683.37 947.783,1683.65 947.485,1683.95 947.196,1684.25 946.917,1684.57 946.649,1684.89 946.39,1685.22 946.142,1685.56 945.905,1685.91 945.679,1686.26 945.464,1686.62 945.261,1686.99 945.07,1687.36 944.89,1687.74 944.722,1688.13 944.567,1688.52 944.424,1688.91 944.294,1689.31 944.176,1689.71 944.071,1690.12 943.979,1690.53 943.9,1690.94 943.834,1691.36 943.781,1691.77 943.741,1692.19 943.715,1692.61 943.702,1693.03 943.702,1693.45 943.715,1693.87 943.741,1694.29 943.781,1694.71 943.834,1695.12 943.9,1695.54 943.979,1695.95 944.071,1696.36 944.176,1696.77 944.294,1697.17 944.424,1697.57 944.567,1697.96 944.722,1698.35 944.89,1698.74 945.07,1699.12 945.261,1699.49 945.464,1699.86 945.679,1700.22 945.905,1700.57 946.142,1700.92 946.39,1701.26 946.649,1701.59 946.917,1701.91 947.196,1702.23 947.485,1702.53 947.783,1702.83 948.09,1703.11 948.406,1703.39 948.731,1703.66 949.064,1703.91 949.405,1704.16 949.753,1704.39 950.109,1704.62 950.472,1704.83 950.841,1705.03 951.216,1705.22 951.597,1705.39 951.983,1705.56 952.374,1705.71 952.77,1705.85 953.171,1705.98 953.575,1706.09 953.982,1706.19 954.392,1706.28 954.805,1706.36 955.221,1706.42 955.638,1706.47 956.056,1706.51 956.475,1706.53 956.895,1706.54 957.315,1706.54 957.735,1706.52 958.153,1706.49 958.571,1706.45 958.987,1706.39 959.401,1706.32 959.813,1706.24 960.222,1706.14 960.628,1706.04 961.03,1705.91 961.428,1705.78 961.822,1705.64 962.211,1705.48 962.594,1705.31 962.973,1705.12 963.345,1704.93 963.711,1704.72 964.07,1704.51 964.422,1704.28 964.766,1704.04 965.103,1703.79 965.432,1703.53 965.753,1703.25 966.065,1702.97 966.367,1702.68 966.661,1702.38 966.944,1702.07 967.218,1701.75 967.482,1701.43 967.735,1701.09 967.978,1700.75 968.209,1700.4 968.43,1700.04 968.639,1699.68 968.836,1699.31 969.022,1698.93 969.195,1698.55 969.357,1698.16 969.506,1697.77 969.643,1697.37 969.767,1696.97 969.878,1696.56 969.976,1696.16 970.062,1695.74 970.135,1695.33 970.194,1694.92 970.24,1694.5 970.273,1694.08 970.293,1693.66 970.3,1693.24"/>
      <polyline fill="none"
                vector-effect="none"
                points="1107,1843.24 1107,1543.24"/>
      <polyline fill="none"
                vector-effect="none"
                points="807,1543.24 807,1843.24"/>
      <polyline fill="none"
                vector-effect="none"
                points="2400,1422.02 2095.51,1246.23"/>
      <polyline fill="none"
                vector-effect="none"
                points="2095.51,1246.23 1883.38,1368.7"/>
      <polyline fill="none"
                vector-effect="none"
                points="2201.58,1642.23 2413.71,1764.7"/>
      <polyline fill="none"
                vector-effect="none"
                points="2187.86,1544.5 1883.38,1368.7"/>
      <polyline fill="none"
                vector-effect="none"
                points="2590.49,1940.25 1883.38,1532"/>
      <polyline fill="none"
                vector-effect="none"
                points="2561.78,1605.24 2413.71,1519.76"/>
      <polyline fill="none"
                vector-effect="none"
                points="2187.86,1544.5 2201.58,1642.23"/>
      <polyline fill="none"
                vector-effect="none"
                points="2590.49,1940.25 2590.49,1776.95"/>
      <polyline fill="none"
                vector-effect="none"
                points="1883.38,1532 1883.38,1368.7"/>
      <polyline fill="none"
                vector-effect="none"
                points="2427.43,1682.81 2639.56,1560.33"/>
      <polyline fill="none"
                vector-effect="none"
                points="2590.49,1776.95 2427.43,1682.8 "/>
      <polyline fill="none"
                vector-effect="none"
                points="2802.62,1817.78 2802.62,1654.48"/>
      <polyline fill="none"
                vector-effect="none"
                points="2413.71,1519.76 2400,1422.02"/>
      <polyline fill="none"
                vector-effect="none"
                points="2802.62,1654.48 2639.56,1560.33"/>
      <polyline fill="none"
                vector-effect="none"
                points="2802.62,1654.48 2590.49,1776.95"/>
      <polyline fill="none"
                vector-effect="none"
                points="2802.62,1817.78 2590.49,1940.25"/>
      <polyline fill="none"
                vector-effect="none"
                points="2427.43,1682.81 2413.71,1764.7"/>
      <polyline fill="none"
                vector-effect="none"
                points="2187.86,1544.5 2400,1422.02"/>
      <polyline fill="none"
                vector-effect="none"
                points="2201.58,1642.23 2413.71,1519.76"/>
      <polyline fill="none"
                vector-effect="none"
                points="2400.41,1642.23 2400.42,1642.47 2400.44,1642.71 2400.47,1642.96 2400.52,1643.2 2400.58,1643.44 2400.65,1643.68 2400.73,1643.91 2400.83,1644.15 2400.94,1644.38 2401.07,1644.61 2401.2,1644.84 2401.35,1645.07 2401.52,1645.29 2401.69,1645.51 2401.87,1645.73 2402.07,1645.95 2402.28,1646.16 2402.5,1646.36 2402.73,1646.56 2402.98,1646.76 2403.23,1646.96 2403.49,1647.14 2403.77,1647.33 2404.05,1647.51 2404.34,1647.68 2404.65,1647.85 2404.96,1648.01 2405.28,1648.17 2405.61,1648.32 2405.94,1648.46 2406.29,1648.6 2406.64,1648.73 2407,1648.86 2407.37,1648.98 2407.74,1649.09 2408.12,1649.2 2408.5,1649.29 2408.89,1649.39 2409.28,1649.47 2409.68,1649.55 2410.08,1649.62 2410.49,1649.68 2410.9,1649.73 2411.31,1649.78 2411.72,1649.82 2412.14,1649.85 2412.56,1649.88 2412.98,1649.9 2413.4,1649.91 2413.82,1649.91 2414.24,1649.9 2414.65,1649.89 2415.07,1649.87 2415.49,1649.84 2415.91,1649.8 2416.32,1649.76 2416.73,1649.71 2417.14,1649.65 2417.54,1649.58 2417.94,1649.51 2418.34,1649.43 2418.73,1649.34 2419.11,1649.25 2419.49,1649.14 2419.87,1649.04 2420.24,1648.92 2420.6,1648.8 2420.96,1648.67 2421.31,1648.53 2421.65,1648.39 2421.98,1648.24 2422.3,1648.09 2422.62,1647.93 2422.93,1647.77 2423.23,1647.59 2423.51,1647.42 2423.79,1647.24 2424.06,1647.05 2424.32,1646.86 2424.57,1646.66 2424.81,1646.46 2425.03,1646.26 2425.25,1646.05 2425.45,1645.84 2425.64,1645.62 2425.82,1645.4 2425.99,1645.18 2426.14,1644.96 2426.29,1644.73 2426.42,1644.5 2426.53,1644.27 2426.64,1644.03 2426.73,1643.79 2426.81,1643.56 2426.88,1643.32 2426.93,1643.08 2426.97,1642.84 2427,1642.59 2427.01,1642.35 2427.01,1642.11 2427,1641.87 2426.97,1641.62 2426.93,1641.38 2426.88,1641.14 2426.81,1640.9 2426.73,1640.66 2426.64,1640.43 2426.53,1640.19 2426.42,1639.96 2426.29,1639.73 2426.14,1639.5 2425.99,1639.28 2425.82,1639.05 2425.64,1638.84 2425.45,1638.62 2425.25,1638.41 2425.03,1638.2 2424.81,1638 2424.57,1637.8 2424.32,1637.6 2424.06,1637.41 2423.79,1637.22 2423.51,1637.04 2423.23,1636.86 2422.93,1636.69 2422.62,1636.53 2422.3,1636.37 2421.98,1636.22 2421.65,1636.07 2421.31,1635.93 2420.96,1635.79 2420.6,1635.66 2420.24,1635.54 2419.87,1635.42 2419.49,1635.32 2419.11,1635.21 2418.73,1635.12 2418.34,1635.03 2417.94,1634.95 2417.54,1634.88 2417.14,1634.81 2416.73,1634.75 2416.32,1634.7 2415.91,1634.66 2415.49,1634.62 2415.07,1634.59 2414.65,1634.57 2414.24,1634.56 2413.82,1634.55 2413.4,1634.55 2412.98,1634.56 2412.56,1634.58 2412.14,1634.6 2411.72,1634.64 2411.31,1634.68 2410.9,1634.72 2410.49,1634.78 2410.08,1634.84 2409.68,1634.91 2409.28,1634.99 2408.89,1635.07 2408.5,1635.16 2408.12,1635.26 2407.74,1635.37 2407.37,1635.48 2407,1635.6 2406.64,1635.73 2406.29,1635.86 2405.94,1636 2405.61,1636.14 2405.28,1636.29 2404.96,1636.45 2404.65,1636.61 2404.34,1636.78 2404.05,1636.95 2403.77,1637.13 2403.49,1637.31 2403.23,1637.5 2402.98,1637.7 2402.73,1637.89 2402.5,1638.1 2402.28,1638.3 2402.07,1638.51 2401.87,1638.73 2401.69,1638.94 2401.52,1639.17 2401.35,1639.39 2401.2,1639.62 2401.07,1639.85 2400.94,1640.08 2400.83,1640.31 2400.73,1640.55 2400.65,1640.78 2400.58,1641.02 2400.52,1641.26 2400.47,1641.5 2400.44,1641.75 2400.42,1641.99 2400.41,1642.23"/>
    </g>

    <g fill="none"
       stroke="#000000"
       stroke-opacity="1"
       stroke-width="1"
       stroke-linecap="square"
       stroke-linejoin="bevel"
       transform="matrix(1,0,0,1,0,0)"
       font-family="Arial"
       font-size="12"
       font-weight="400"
       font-style="normal">
    </g>
  </g>
</svg>
